# File generated by ImageToStl.com - Free Image and 3D model conversion tools

mtllib poster_frame_old_japanese_movie_3.mtl

o obj1
v 1 4.99514866 -3.54352248
v 0.85989654 4.99514866 -3.54352248
v 0.85989654 4.99514866 -0.0125097
v 1 4.99514866 -0.0125097
v 1 0.01250958 -0.0125097
v 1 4.99514866 -0.0125097
v 0.85989654 4.99514866 -0.0125097
v 0.85989654 0.01250958 -0.0125097
v 0.85989654 0.01250958 -0.0125097
v 0.85989654 4.99514866 -0.0125097
v 0.85989654 4.99514866 -3.54352248
v 0.85989654 0.01250958 -3.54352248
v 0.85989654 0.01250958 -3.54352248
v 1 0.01250958 -3.54352248
v 1 0.01250958 -0.0125097
v 0.85989654 0.01250958 -0.0125097
v 1 4.99514866 -0.0125097
v 1 0.01250958 -0.0125097
v 1 0.20550513 -0.14927852
v 1 4.80215311 -0.14927852
v 0.85989654 0.01250958 -3.54352248
v 0.85989654 4.99514866 -3.54352248
v 1 4.99514866 -3.54352248
v 1 0.01250958 -3.54352248
v 1 0.01250958 -3.54352248
v 1 4.99514866 -3.54352248
v 1 4.80215311 -3.40675366
v 1 0.20550513 -3.40675366
vn 0 1 0
vn 0 0 1
vn -1 0 0
vn 0 -1 0
vn 1 0 0
vn 0 0 -1
vt 0.2803 0.53854
vt 0.27951 0.51995
vt 0.77658 0.54606
vt 0.77315 0.56421
vt 0.46672 0.13747
vt 0.46085 0.76823
vt 0.44097 0.76837
vt 0.44983 0.13706
vt 0.63147 0.31625
vt 0.64088 0.65704
vt 0.3863 0.6578
vt 0.39399 0.3129
vt 0.25383 0.49033
vt 0.25547 0.46919
vt 0.80046 0.47289
vt 0.80214 0.49408
vt 0.34812 0.67626
vt 0.34871 0.2904
vt 0.35932 0.30538
vt 0.35881 0.66119
vt 0.54441 0.16371
vt 0.5502 0.76417
vt 0.53189 0.7639
vt 0.52822 0.16434
vt 0.62025 0.29273
vt 0.62071 0.67439
vt 0.61025 0.65962
vt 0.60986 0.30738
usemtl mat0
f 1/1/1 2/2/1 3/3/1
f 1/1/1 3/3/1 4/4/1
f 5/5/2 6/6/2 7/7/2
f 5/5/2 7/7/2 8/8/2
f 9/9/3 10/10/3 11/11/3
f 9/9/3 11/11/3 12/12/3
f 13/13/4 14/14/4 15/15/4
f 13/13/4 15/15/4 16/16/4
f 17/17/5 18/18/5 19/19/5
f 17/17/5 19/19/5 20/20/5
f 21/21/6 22/22/6 23/23/6
f 21/21/6 23/23/6 24/24/6
f 25/25/5 26/26/5 27/27/5
f 25/25/5 27/27/5 28/28/5
f 18/18/5 25/25/5 28/28/5
f 18/18/5 28/28/5 19/19/5
f 26/26/5 17/17/5 20/20/5
f 26/26/5 20/20/5 27/27/5
# Vertices: 28, normals: 6, texture coordinates: 28, faces: 18

o obj2
v 1 0.20550513 -3.40675366
v 1 4.80215311 -3.40675366
v 1 4.80215311 -0.14927852
v 1 0.20550513 -0.14927852
vn 1 0 0
vt 0.99915 0.0001
vt 0.99915 0.9999
vt 0.0001 0.9999
vt 0.0001 0.0001
usemtl mat1
f 29/29/7 30/30/7 31/31/7
f 29/29/7 31/31/7 32/32/7
# Vertices: 4, normals: 1, texture coordinates: 4, faces: 2

o obj3
v 0.92144305 4.93297582 -1.56957127
v 0.92144305 4.98857468 -1.56890906
v 0.92748798 4.98869711 -1.56832641
v 0.92748798 4.93297582 -1.5689759
v 0.93330061 4.9890597 -1.56660085
v 0.93330061 4.93297582 -1.56721266
v 0.93865756 4.98964851 -1.5637987
v 0.93865756 4.93297582 -1.56434931
v 0.94335296 4.99044092 -1.56002764
v 0.94335296 4.93297582 -1.56049587
v 0.94720638 4.99140648 -1.55543258
v 0.94720638 4.93297582 -1.55580047
v 0.95006973 4.99250807 -1.55019012
v 0.95006973 4.93297582 -1.55044352
v 0.95183297 4.99370336 -1.54450171
v 0.95183297 4.93297582 -1.54463091
v 0.95242835 4.99494643 -1.53858596
v 0.95242835 4.93297582 -1.53858596
v 0.95183297 4.99618949 -1.53267022
v 0.95183297 4.93297582 -1.53254102
v 0.95006973 4.99738479 -1.52698181
v 0.95006973 4.93297582 -1.52672841
v 0.94720638 4.99848638 -1.52173935
v 0.94720638 4.93297582 -1.52137146
v 0.94335296 4.99945193 -1.51714429
v 0.94335296 4.93297582 -1.51667605
v 0.93865756 5.00024434 -1.51337323
v 0.93865756 4.93297582 -1.51282262
v 0.93330061 5.00083315 -1.51057108
v 0.93330061 4.93297582 -1.50995927
v 0.92748798 5.00119574 -1.50884552
v 0.92748798 4.93297582 -1.50819603
v 0.92144305 5.00131817 -1.50826287
v 0.92144305 4.93297582 -1.50760066
v 0.91539811 5.00119574 -1.50884552
v 0.91539811 4.93297582 -1.50819603
v 0.90958548 5.00083315 -1.51057108
v 0.90958548 4.93297582 -1.50995927
v 0.90422853 5.00024434 -1.51337323
v 0.90422853 4.93297582 -1.51282262
v 0.89953313 4.99945193 -1.51714429
v 0.89953313 4.93297582 -1.51667605
v 0.89567971 4.99848638 -1.52173935
v 0.89567971 4.93297582 -1.52137146
v 0.89281636 4.99738479 -1.52698181
v 0.89281636 4.93297582 -1.52672841
v 0.89105312 4.99618949 -1.53267022
v 0.89105312 4.93297582 -1.53254102
v 0.89045774 4.99494643 -1.53858596
v 0.89045774 4.93297582 -1.53858596
v 0.89105312 4.99370336 -1.54450171
v 0.89105312 4.93297582 -1.54463091
v 0.89281636 4.99250807 -1.55019012
v 0.89281636 4.93297582 -1.55044352
v 0.89567971 4.99140648 -1.55543258
v 0.89567971 4.93297582 -1.55580047
v 0.89953313 4.99044092 -1.56002764
v 0.89953313 4.93297582 -1.56049587
v 0.90422853 4.98964851 -1.5637987
v 0.90422853 4.93297582 -1.56434931
v 0.90958548 4.9890597 -1.56660085
v 0.90958548 4.93297582 -1.56721266
v 0.93865756 5.03460301 -1.58411205
v 0.94335296 5.0363679 -1.58068658
v 0.91539811 4.98869711 -1.56832641
v 0.91539811 4.93297582 -1.5689759
v 0.89105312 5.04917156 -1.55583622
v 0.89281636 5.05183381 -1.55066911
v 0.89281636 5.13851888 -1.60233329
v 0.89105312 5.13513732 -1.60706108
v 0.94335296 5.05643791 -1.54173309
v 0.93865756 5.05820284 -1.53830763
v 0.89567971 5.05428735 -1.54590706
v 0.90958548 5.03329155 -1.58665742
v 0.91539811 5.03248396 -1.58822483
v 0.95242835 5.04640291 -1.56120983
v 0.95183297 5.04917156 -1.55583622
v 0.91539811 5.06032186 -1.53419484
v 0.90958548 5.05951426 -1.53576226
v 0.89281636 5.04097201 -1.57175058
v 0.89567971 5.03851846 -1.57651263
v 0.94720638 5.03851846 -1.57651263
v 0.93330061 5.05951426 -1.53576226
v 0.92144304 5.03221127 -1.58875411
v 0.92748798 5.03248396 -1.58822483
v 0.95006973 5.05183381 -1.55066911
v 0.90422853 5.05820284 -1.53830763
v 0.89953313 5.0363679 -1.58068658
v 0.95006973 5.04097201 -1.57175058
v 0.92748798 5.06032186 -1.53419484
v 0.89045774 5.04640291 -1.56120983
v 0.93330061 5.03329155 -1.58665742
v 0.94720638 5.05428735 -1.54590706
v 0.89953313 5.05643791 -1.54173309
v 0.90422853 5.03460301 -1.58411205
v 0.95183297 5.04363426 -1.56658347
v 0.92144304 5.06059455 -1.53366559
v 0.89105312 5.04363426 -1.56658347
v 0.89281636 5.12472242 -1.62162229
v 0.89105312 5.12810394 -1.61689451
v 0.89105312 5.1998765 -1.67790363
v 0.89281636 5.19577074 -1.68201816
v 0.95183297 5.13513732 -1.60706108
v 0.95006973 5.13851888 -1.60233329
v 0.89045774 5.13162065 -1.61197779
v 0.94720638 5.14163531 -1.59797616
v 0.94335296 5.14436691 -1.5941571
v 0.93865756 5.1466087 -1.59102288
v 0.89567971 5.12160597 -1.62597942
v 0.93330061 5.14827445 -1.58869394
v 0.92144304 5.11359468 -1.63718005
v 0.92748798 5.11394106 -1.63669578
v 0.89953313 5.11887436 -1.62979847
v 0.92748798 5.14930024 -1.58725978
v 0.93330061 5.11496684 -1.63526164
v 0.90422853 5.11663262 -1.63293269
v 0.92144304 5.14964659 -1.58677554
v 0.93865756 5.11663262 -1.63293269
v 0.90958548 5.11496684 -1.63526164
v 0.91539811 5.14930024 -1.58725978
v 0.94335296 5.11887436 -1.62979847
v 0.91539811 5.11394106 -1.63669578
v 0.90958548 5.14827445 -1.58869394
v 0.94720638 5.12160597 -1.62597942
v 0.90422853 5.1466087 -1.59102288
v 0.95006973 5.12472242 -1.62162229
v 0.89953313 5.14436691 -1.5941571
v 0.95183297 5.12810394 -1.61689451
v 0.89567971 5.14163531 -1.59797616
v 0.95242835 5.13162065 -1.61197779
v 0.90422853 5.18594831 -1.6918614
v 0.89953313 5.18867018 -1.68913374
v 0.89953313 5.24774508 -1.75721419
v 0.90422854 5.24425196 -1.75884115
v 0.94335296 5.21962263 -1.65811562
v 0.93865756 5.22234457 -1.65538797
v 0.89567971 5.19198682 -1.68581009
v 0.93330061 5.22436704 -1.65336112
v 0.92144304 5.18225972 -1.69555779
v 0.92748798 5.18268026 -1.69513636
v 0.92748798 5.22561255 -1.652113
v 0.93330061 5.18392575 -1.69388826
v 0.92144304 5.22603309 -1.65169156
v 0.93865756 5.18594831 -1.6918614
v 0.90958548 5.18392575 -1.69388826
v 0.91539811 5.22561255 -1.652113
v 0.94335296 5.18867018 -1.68913374
v 0.91539811 5.18268026 -1.69513636
v 0.90958548 5.22436704 -1.65336112
v 0.94720638 5.19198682 -1.68581009
v 0.90422853 5.22234457 -1.65538797
v 0.95006973 5.19577074 -1.68201816
v 0.89953313 5.21962263 -1.65811562
v 0.95183297 5.1998765 -1.67790363
v 0.89567971 5.21630595 -1.66143929
v 0.95242835 5.20414642 -1.67362469
v 0.89281636 5.21252207 -1.66523122
v 0.95183297 5.20841626 -1.66934575
v 0.89105312 5.20841626 -1.66934575
v 0.95006973 5.21252207 -1.66523122
v 0.89045774 5.20414642 -1.67362469
v 0.94720638 5.21630595 -1.66143929
v 0.92144304 5.23951826 -1.76104593
v 0.91539811 5.240058 -1.76079455
v 0.91539811 5.24009694 -1.76304661
v 0.92144304 5.23955169 -1.7628075
v 0.92748798 5.29515479 -1.73513266
v 0.92144304 5.29569447 -1.73488125
v 0.93330061 5.24165636 -1.76005013
v 0.93865756 5.24425196 -1.75884115
v 0.90958548 5.24165636 -1.76005013
v 0.91539811 5.29515479 -1.73513266
v 0.94335296 5.24774508 -1.75721419
v 0.90958548 5.29355641 -1.73587708
v 0.94720638 5.25200148 -1.75523178
v 0.90422854 5.29096081 -1.73708608
v 0.95006973 5.25685753 -1.75297003
v 0.89953313 5.28746766 -1.73871295
v 0.95183297 5.26212665 -1.7505158
v 0.89567971 5.28321123 -1.74069542
v 0.95242835 5.26760638 -1.7479636
v 0.89281636 5.27835522 -1.74295717
v 0.95183297 5.27308609 -1.74541135
v 0.89105312 5.27308609 -1.74541135
v 0.95006973 5.27835522 -1.74295717
v 0.89045775 5.26760638 -1.7479636
v 0.94720638 5.28321123 -1.74069542
v 0.89105312 5.26212665 -1.7505158
v 0.94335296 5.28746766 -1.73871295
v 0.89281636 5.25685753 -1.75297003
v 0.93865756 5.29096081 -1.73708608
v 0.89567971 5.25200148 -1.75523178
v 0.93330061 5.29355641 -1.73587708
v 0.92748798 5.240058 -1.76079455
v 0.89281636 5.27878747 -1.78001398
v 0.89567971 5.28369336 -1.78216539
v 0.89567971 5.21988234 -1.8522353
v 0.89281636 5.21581007 -1.84875492
v 0.90958548 5.29414475 -1.78674887
v 0.90422854 5.29152241 -1.78559891
v 0.94720639 5.25216307 -1.76833811
v 0.95006973 5.25706895 -1.77048958
v 0.89953313 5.28799348 -1.78405126
v 0.95183297 5.26239225 -1.77282402
v 0.95242835 5.26792821 -1.77525178
v 0.95183297 5.27346421 -1.77767954
v 0.89105312 5.27346421 -1.77767954
v 0.95006973 5.27878747 -1.78001398
v 0.89045775 5.26792821 -1.77525178
v 0.94720639 5.28369336 -1.78216539
v 0.89105312 5.26239225 -1.77282402
v 0.94335297 5.28799348 -1.78405126
v 0.89281636 5.25706895 -1.77048958
v 0.93865756 5.29152241 -1.78559891
v 0.89567971 5.25216307 -1.76833811
v 0.93330061 5.29414475 -1.78674887
v 0.92748798 5.24009694 -1.76304661
v 0.89953313 5.24786302 -1.7664523
v 0.92748798 5.29575948 -1.78745701
v 0.93330061 5.24171167 -1.76375481
v 0.90422854 5.24433398 -1.76490471
v 0.92144304 5.29630479 -1.78769613
v 0.93865756 5.24433398 -1.76490471
v 0.90958548 5.24171167 -1.76375481
v 0.91539811 5.29575948 -1.78745701
v 0.94335297 5.24786302 -1.7664523
v 0.89105312 5.20220085 -1.83712357
v 0.89045775 5.20679612 -1.841051
v 0.89045775 5.13954331 -1.89318158
v 0.89105312 5.13573979 -1.88848324
v 0.95242835 5.20679612 -1.841051
v 0.95183297 5.21139139 -1.84497843
v 0.89105312 5.21139139 -1.84497843
v 0.95006973 5.21581007 -1.84875492
v 0.94720639 5.21988234 -1.8522353
v 0.94335297 5.22345171 -1.85528605
v 0.89281636 5.19778216 -1.83334702
v 0.93865756 5.22638093 -1.85778966
v 0.89567971 5.19370994 -1.82986661
v 0.93330061 5.22855768 -1.85965005
v 0.92144304 5.1832416 -1.82091959
v 0.92748798 5.18369418 -1.82130642
v 0.89953313 5.19014059 -1.8268159
v 0.92748798 5.22989801 -1.86079559
v 0.93330061 5.18503451 -1.82245202
v 0.90422854 5.18721124 -1.82431229
v 0.92144304 5.2303507 -1.86118243
v 0.93865756 5.18721124 -1.82431229
v 0.90958548 5.18503451 -1.82245202
v 0.91539811 5.22989801 -1.86079559
v 0.94335297 5.19014059 -1.8268159
v 0.91539811 5.18369418 -1.82130642
v 0.90958548 5.22855768 -1.85965005
v 0.94720639 5.19370994 -1.82986661
v 0.90422854 5.22638093 -1.85778966
v 0.95006973 5.19778216 -1.83334702
v 0.89953313 5.22345171 -1.85528605
v 0.95183297 5.20220085 -1.83712357
v 0.92748798 5.1204218 -1.86956136
v 0.92748797 5.03793948 -1.92327318
v 0.93330061 5.0389356 -1.924728
v 0.93330061 5.12153118 -1.87093177
v 0.94720639 5.15037486 -1.90656124
v 0.94335297 5.1533292 -1.91021079
v 0.89281636 5.13208245 -1.88396538
v 0.93865756 5.1557537 -1.91320579
v 0.89567971 5.12871184 -1.87980178
v 0.93330061 5.15755542 -1.91543138
v 0.92144304 5.12004717 -1.86909861
v 0.89953313 5.12575748 -1.87615229
v 0.92748798 5.15866478 -1.91680178
v 0.90422854 5.12333286 -1.87315725
v 0.92144304 5.15903949 -1.91726459
v 0.93865756 5.12333286 -1.87315725
v 0.90958548 5.12153118 -1.87093177
v 0.91539811 5.15866478 -1.91680178
v 0.94335297 5.12575748 -1.87615229
v 0.91539811 5.1204218 -1.86956136
v 0.90958548 5.15755542 -1.91543138
v 0.94720639 5.12871184 -1.87980178
v 0.90422854 5.1557537 -1.91320579
v 0.95006973 5.13208245 -1.88396538
v 0.89953313 5.1533292 -1.91021079
v 0.95183297 5.13573979 -1.88848324
v 0.89567971 5.15037486 -1.90656124
v 0.95242835 5.13954331 -1.89318158
v 0.89281636 5.14700416 -1.90239772
v 0.95183297 5.14334684 -1.89787993
v 0.89105312 5.14334684 -1.89787993
v 0.95006973 5.14700416 -1.90239772
v 0.89953313 5.04273051 -1.93027006
v 0.90422854 5.04055338 -1.92709058
v 0.92748797 5.07227865 -1.97342303
v 0.92144304 5.07261508 -1.97391441
v 0.93865756 5.04055338 -1.92709058
v 0.90958548 5.0389356 -1.924728
v 0.91539811 5.07227865 -1.97342303
v 0.94335297 5.04273051 -1.93027006
v 0.91539811 5.03793948 -1.92327318
v 0.90958548 5.07128252 -1.97196826
v 0.94720639 5.04538328 -1.93414432
v 0.92144304 5.03760309 -1.92278194
v 0.90422854 5.06966473 -1.96960559
v 0.95006973 5.04840981 -1.93856436
v 0.89953313 5.0674877 -1.96642615
v 0.95183297 5.05169381 -1.94336041
v 0.89567971 5.06483494 -1.96255181
v 0.95242835 5.05510909 -1.94834818
v 0.89281636 5.06180834 -1.95813188
v 0.95183297 5.05852438 -1.95333584
v 0.89105312 5.05852438 -1.95333584
v 0.95006973 5.06180834 -1.95813188
v 0.89045775 5.05510909 -1.94834818
v 0.94720639 5.06483494 -1.96255181
v 0.89105312 5.05169381 -1.94336041
v 0.94335297 5.0674877 -1.96642615
v 0.89281636 5.04840981 -1.93856436
v 0.93865756 5.06966473 -1.96960559
v 0.89567971 5.04538328 -1.93414432
v 0.93330061 5.07128252 -1.97196826
v 0.95006973 4.99366267 -1.95885278
v 0.95183297 4.99524734 -1.96444521
v 0.95006973 5.00012802 -1.98166963
v 0.95183297 4.99854337 -1.9760772
v 0.95183297 4.93561297 -1.97568858
v 0.95006973 4.93553025 -1.9815006
v 0.89953313 5.00286855 -1.99134121
v 0.89567971 5.00158855 -1.98682355
v 0.95242835 4.99689532 -1.97026127
v 0.89281636 5.00012802 -1.98166963
v 0.89105312 4.99854337 -1.9760772
v 0.89045775 4.99689532 -1.97026127
v 0.94720639 5.00158855 -1.98682355
v 0.89105312 4.99524734 -1.96444521
v 0.94335297 5.00286855 -1.99134121
v 0.89281636 4.99366267 -1.95885278
v 0.93865756 5.00391903 -1.99504858
v 0.89567971 4.99220224 -1.95369878
v 0.93330061 5.00469968 -1.9978036
v 0.92144304 4.98844799 -1.94044959
v 0.92748797 4.98861029 -1.94102246
v 0.89953313 4.99092221 -1.94918121
v 0.92748797 5.00518036 -1.99949996
v 0.93330061 4.98909096 -1.94271884
v 0.90422854 4.98987163 -1.94547375
v 0.92144304 5.0053427 -2.00007294
v 0.93865756 4.98987163 -1.94547375
v 0.90958548 4.98909096 -1.94271884
v 0.91539811 5.00518036 -1.99949996
v 0.94335297 4.99092221 -1.94918121
v 0.91539811 4.98861029 -1.94102246
v 0.90958548 5.00469968 -1.9978036
v 0.94720639 4.99220224 -1.95369878
v 0.90422854 5.00391903 -1.99504858
v 0.93330061 4.93610629 -1.94102039
v 0.92748797 4.9361314 -1.93925736
v 0.92144304 4.93613989 -1.938662
v 0.91539811 4.9361314 -1.93925736
v 0.90958548 4.93610629 -1.94102039
v 0.90422854 4.93606558 -1.94388344
v 0.89953313 4.93601079 -1.94773648
v 0.89567971 4.93594392 -1.95243146
v 0.89281636 4.9358677 -1.95778782
v 0.89105312 4.935785 -1.96359984
v 0.89045775 4.93569894 -1.96964426
v 0.89105312 4.93561297 -1.97568858
v 0.89281636 4.93553025 -1.9815006
v 0.89567971 4.93545414 -1.9868569
v 0.89953313 4.93538723 -1.99155196
v 0.90422854 4.93533237 -1.99540487
v 0.90958548 4.93529161 -1.99826803
v 0.91539811 4.93526652 -2.00003103
v 0.92144304 4.93525802 -2.00062651
v 0.92748797 4.93526652 -2.00003103
v 0.93330061 4.93529161 -1.99826803
v 0.93865756 4.93533237 -1.99540487
v 0.94335297 4.93538723 -1.99155196
v 0.94720639 4.93545414 -1.9868569
v 0.95242835 4.93569894 -1.96964426
v 0.95183297 4.935785 -1.96359984
v 0.95006973 4.9358677 -1.95778782
v 0.94720639 4.93594392 -1.95243146
v 0.94335297 4.93601079 -1.94773648
v 0.93865756 4.93606558 -1.94388344
vn 0.0969 0.0117 -0.99523
vn 0.28711 0.0108 -0.95784
vn 0.46708 0.0091 -0.88417
vn 0.62992 0.0069 -0.77663
vn 0.76942 0.0046 -0.63872
vn 0.87971 0.0025 -0.47551
vn 0.95605 0.0009 -0.29321
vn 0.99508 0.0001 -0.0991
vn 0.99508 0.0001 0.0991
vn 0.95608 0.0009 0.29309
vn 0.87988 0.0023 0.47519
vn 0.76988 0.004 0.63818
vn 0.63059 0.0059 0.77609
vn 0.4678 0.0076 0.8838
vn 0.28769 0.0089 0.95768
vn 0.0971 0.0096 0.99523
vn -0.0971 0.0096 0.99523
vn -0.28769 0.0089 0.95768
vn -0.4678 0.0076 0.8838
vn -0.63059 0.0059 0.77609
vn -0.76988 0.004 0.63818
vn -0.87988 0.0023 0.47519
vn -0.95608 0.0009 0.29309
vn -0.99508 0.0001 0.0991
vn -0.99508 0.0001 -0.0991
vn -0.95605 0.0009 -0.29321
vn -0.87971 0.0025 -0.47551
vn -0.76942 0.0046 -0.63872
vn -0.62992 0.0069 -0.77663
vn -0.46708 0.0091 -0.88417
vn 0.62969 -0.3193 -0.70819
vn -0.28711 0.0108 -0.95784
vn -0.0969 0.0117 -0.99523
vn 0 -1 0
vn -0.95671 0.149 0.25
vn 0.63013 0.30721 0.71313
vn -0.87969 0.1894 0.4362
vn -0.2869 -0.39599 -0.87228
vn 0.99507 0.0398 0.0908
vn -0.28732 0.37762 0.88026
vn -0.8795 -0.1939 -0.4346
vn 0.76916 -0.26159 -0.58307
vn 0.46728 0.34909 0.81227
vn -0.956 0.1173 0.2689
vn 0.0968 -0.41189 -0.90608
vn -0.0968 -0.41189 -0.90608
vn 0.956 0.1173 0.2689
vn -0.46728 0.34909 0.81227
vn -0.76916 -0.26159 -0.58307
vn 0.8795 -0.1939 -0.4346
vn 0.28732 0.37762 0.88026
vn -0.99507 0.0398 0.0908
vn 0.2869 -0.39599 -0.87228
vn 0.87969 0.1894 0.4362
vn -0.63013 0.30721 0.71313
vn -0.62969 -0.3193 -0.70819
vn 0.95596 -0.119 -0.26829
vn 0.0969 0.3921 0.9148
vn -0.99507 -0.04 -0.0907
vn 0.46679 -0.36469 -0.80568
vn 0.76951 0.2534 0.58621
vn -0.76951 0.2534 0.58621
vn -0.46679 -0.36469 -0.80568
vn 0.99507 -0.04 -0.0907
vn -0.0969 0.3921 0.9148
vn -0.95596 -0.119 -0.26829
vn -0.95666 -0.18859 -0.22189
vn 0.95671 0.149 0.25
vn -0.99516 0.0503 0.0844
vn 0.88138 0.24189 0.40579
vn -0.99516 -0.0503 -0.0844
vn 0.77217 0.32539 0.54578
vn -0.95673 -0.1489 -0.25001
vn 0.63338 0.39629 0.66467
vn -0.88138 -0.2417 -0.40589
vn 0.4704 0.452 0.7579
vn 0.0978 -0.50888 -0.85526
vn -0.77219 -0.32499 -0.54599
vn 0.28958 0.49027 0.82205
vn 0.2896 -0.4895 -0.82251
vn -0.63338 -0.39578 -0.66497
vn 0.0978 0.50981 0.85471
vn 0.47041 -0.45131 -0.75831
vn -0.47041 -0.45131 -0.75831
vn -0.0978 0.50981 0.85471
vn 0.63338 -0.39578 -0.66497
vn -0.2896 -0.4895 -0.82251
vn -0.28958 0.49027 0.82205
vn 0.77219 -0.32499 -0.54599
vn -0.0978 -0.50888 -0.85526
vn -0.4704 0.452 0.7579
vn 0.88138 -0.2417 -0.40589
vn -0.63338 0.39629 0.66467
vn 0.95673 -0.1489 -0.25001
vn -0.77217 0.32539 0.54578
vn 0.99516 -0.0503 -0.0844
vn -0.88138 0.24189 0.40579
vn 0.99516 0.0503 0.0844
vn -0.62649 -0.58829 -0.51129
vn 0.63311 0.5013 0.58981
vn -0.88127 -0.30609 -0.36009
vn 0.47021 0.57151 0.67251
vn 0.0977 -0.64463 -0.75823
vn -0.77199 -0.41169 -0.48429
vn 0.28939 0.61988 0.72938
vn 0.2894 -0.61999 -0.72929
vn -0.63311 -0.50141 -0.58971
vn 0.0977 0.64447 0.75836
vn 0.47019 -0.57169 -0.67238
vn -0.47019 -0.57169 -0.67238
vn -0.0977 0.64447 0.75836
vn 0.63311 -0.50141 -0.58971
vn -0.2894 -0.61999 -0.72929
vn -0.28939 0.61988 0.72938
vn 0.77199 -0.41169 -0.48429
vn -0.0977 -0.64463 -0.75823
vn -0.47021 0.57151 0.67251
vn 0.88127 -0.30609 -0.36009
vn -0.63311 0.5013 0.58981
vn 0.95666 -0.18859 -0.22189
vn -0.77195 0.41167 0.48437
vn 0.99515 -0.0637 -0.0749
vn -0.88127 0.30609 0.36009
vn 0.99515 0.0637 0.0749
vn -0.95666 0.18859 0.22189
vn 0.95666 0.18859 0.22189
vn -0.99515 0.0637 0.0749
vn 0.88127 0.30609 0.36009
vn -0.99515 -0.0637 -0.0749
vn 0.77195 0.41167 0.48437
vn -0.0894 -0.99583 -0.018
vn 0.0962 0.76309 0.63909
vn 0.46371 -0.66792 -0.58211
vn -0.46371 -0.66792 -0.58211
vn -0.0962 0.76309 0.63909
vn 0.62649 -0.58829 -0.51129
vn -0.2847 -0.7221 -0.6305
vn -0.28521 0.73462 0.61562
vn 0.76648 -0.48549 -0.42049
vn -0.096 -0.74941 -0.65511
vn -0.4644 0.6784 0.5693
vn 0.87784 -0.36261 -0.31291
vn -0.6271 0.5962 0.5013
vn 0.95528 -0.2243 -0.1927
vn -0.76691 0.4907 0.4136
vn 0.99499 -0.076 -0.065
vn -0.87802 0.36551 0.30901
vn 0.99499 0.0761 0.0648
vn -0.95532 0.2254 0.1912
vn 0.95532 0.2254 0.1912
vn -0.99499 0.0761 0.0648
vn 0.87802 0.36551 0.30901
vn -0.99499 -0.076 -0.065
vn 0.76691 0.4907 0.4136
vn -0.95528 -0.2243 -0.1927
vn 0.6271 0.5962 0.5013
vn -0.87784 -0.36261 -0.31291
vn 0.4644 0.6784 0.5693
vn 0.096 -0.74941 -0.65511
vn -0.76648 -0.48549 -0.42049
vn 0.28521 0.73462 0.61562
vn 0.2847 -0.7221 -0.6305
vn -0.87653 0.35541 -0.32461
vn -0.43789 0.89897 0.0104
vn 0.86258 -0.50589 -0.0062
vn -0.59889 0.80078 0.0093
vn 0.94882 -0.31581 -0.0038
vn -0.74307 0.66917 0.0078
vn 0.9942 -0.1075 -0.0013
vn -0.86258 0.50589 0.0059
vn 0.9942 0.1075 0.0013
vn -0.94882 0.31581 0.0037
vn 0.94882 0.31581 0.0037
vn -0.9942 0.1075 0.0013
vn 0.86258 0.50589 0.0059
vn -0.9942 -0.1075 -0.0013
vn 0.74307 0.66917 0.0078
vn -0.94882 -0.31581 -0.0038
vn 0.59889 0.80078 0.0093
vn -0.86258 -0.50589 -0.0062
vn 0.43789 0.89897 0.0104
vn 0.0894 -0.99583 -0.018
vn -0.74306 -0.66917 -0.0084
vn 0.2664 0.9638 0.0111
vn 0.26641 -0.96374 -0.0152
vn -0.59888 -0.80077 -0.0105
vn 0.0894 0.99593 0.0115
vn 0.43791 -0.89893 -0.0126
vn -0.43791 -0.89893 -0.0126
vn -0.0894 0.99593 0.0115
vn 0.59888 -0.80077 -0.0105
vn -0.26641 -0.96374 -0.0152
vn -0.2664 0.9638 0.0111
vn 0.74306 -0.66917 -0.0084
vn -0.99509 -0.0606 0.0783
vn 0.9949 0.074 -0.0685
vn -0.95465 0.21919 -0.20149
vn 0.95465 0.21919 -0.20149
vn -0.9949 0.074 -0.0685
vn 0.87653 0.35541 -0.32461
vn -0.9949 -0.0738 0.0688
vn 0.76468 0.47699 -0.43329
vn -0.95447 -0.21739 0.20429
vn 0.62438 0.57939 -0.52389
vn -0.87581 -0.35051 0.33181
vn 0.46198 0.65888 -0.59368
vn 0.0949 -0.71508 0.69258
vn -0.76318 -0.46779 0.44579
vn 0.28349 0.71319 -0.64109
vn 0.28171 -0.68982 0.66692
vn -0.62229 -0.56499 0.54179
vn 0.0956 0.7407 -0.665
vn 0.45962 -0.63953 0.61623
vn -0.45962 -0.63953 0.61623
vn -0.0956 0.7407 -0.665
vn 0.62229 -0.56499 0.54179
vn -0.28171 -0.68982 0.66692
vn -0.28349 0.71319 -0.64109
vn 0.76318 -0.46779 0.44579
vn -0.0949 -0.71508 0.69258
vn -0.46198 0.65888 -0.59368
vn 0.87581 -0.35051 0.33181
vn -0.62438 0.57939 -0.52389
vn 0.95447 -0.21739 0.20429
vn -0.76464 0.47703 -0.43332
vn 0.9949 -0.0738 0.0688
vn 0.28949 -0.52238 0.80207
vn 0.76989 0.39329 -0.50259
vn -0.95606 -0.17909 0.23209
vn 0.63061 0.4788 -0.61081
vn -0.87977 -0.28989 0.37679
vn 0.46779 0.54579 -0.69519
vn 0.0969 -0.60348 0.79147
vn -0.76955 -0.38873 0.50664
vn 0.2877 0.5918 -0.753
vn 0.28721 -0.58102 0.76153
vn -0.6301 -0.472 0.6166
vn 0.0971 0.61518 -0.78238
vn 0.46721 -0.53682 0.70252
vn -0.46721 -0.53682 0.70252
vn -0.0971 0.61518 -0.78238
vn 0.6301 -0.472 0.6166
vn -0.28721 -0.58102 0.76153
vn -0.2877 0.5918 -0.753
vn 0.76955 -0.38873 0.50664
vn -0.0969 -0.60348 0.79147
vn -0.46779 0.54579 -0.69519
vn 0.87977 -0.28989 0.37679
vn -0.63061 0.4788 -0.61081
vn 0.95606 -0.17909 0.23209
vn -0.76989 0.39329 -0.50259
vn 0.99509 -0.0606 0.0783
vn -0.87991 0.2924 -0.37451
vn 0.99509 0.0607 -0.0782
vn -0.95611 0.18 -0.2312
vn 0.95611 0.18 -0.2312
vn -0.99509 0.0607 -0.0782
vn 0.87991 0.2924 -0.37451
vn -0.6333 -0.4225 0.6484
vn 0.0978 0.54561 -0.83231
vn 0.47039 -0.48169 0.73939
vn -0.47039 -0.48169 0.73939
vn -0.0978 0.54561 -0.83231
vn 0.6333 -0.4225 0.6484
vn -0.28949 -0.52238 0.80207
vn -0.2896 0.52471 -0.80051
vn 0.77218 -0.34699 0.53229
vn -0.0977 -0.54308 0.83398
vn -0.47041 0.48362 -0.73812
vn 0.88137 -0.25809 0.39569
vn -0.63341 0.42401 -0.64731
vn 0.95671 -0.1591 0.2437
vn -0.7722 0.348 -0.5316
vn 0.99516 -0.0537 0.0823
vn -0.88138 0.25869 -0.39529
vn 0.99515 0.0538 -0.0823
vn -0.95673 0.1593 -0.24351
vn 0.95673 0.1593 -0.24351
vn -0.99515 0.0538 -0.0823
vn 0.88138 0.25869 -0.39529
vn -0.99516 -0.0537 0.0823
vn 0.7722 0.348 -0.5316
vn -0.95671 -0.1591 0.2437
vn 0.63341 0.42401 -0.64731
vn -0.88137 -0.25809 0.39569
vn 0.47041 0.48362 -0.73812
vn -0.77214 -0.34702 0.53233
vn 0.2896 0.52471 -0.80051
vn 0.95559 -0.1028 0.2762
vn 0.95531 -0.0013 -0.2956
vn -0.76812 0.2299 -0.59761
vn 0.99502 -0.035 0.0933
vn -0.87878 0.1706 -0.44569
vn 0.99502 0.0352 -0.0932
vn -0.95564 0.1047 -0.27531
vn 0.95564 0.1047 -0.27531
vn -0.99502 0.0352 -0.0932
vn 0.87878 0.1706 -0.44569
vn -0.99502 -0.035 0.0933
vn 0.76812 0.2299 -0.59761
vn -0.95559 -0.1028 0.2762
vn 0.62848 0.28029 -0.72557
vn -0.8786 -0.1654 0.448
vn 0.46573 0.31972 -0.82515
vn 0.0963 -0.33681 0.93663
vn -0.76769 -0.2205 0.60169
vn 0.28619 0.34689 -0.89317
vn 0.28569 -0.32489 0.90157
vn -0.6279 -0.2661 0.7314
vn 0.0965 0.36061 -0.92771
vn 0.46508 -0.30119 0.83246
vn -0.46508 -0.30119 0.83246
vn -0.0965 0.36061 -0.92771
vn 0.6279 -0.2661 0.7314
vn -0.28569 -0.32489 0.90157
vn -0.28619 0.34689 -0.89317
vn 0.76769 -0.2205 0.60169
vn -0.0963 -0.33681 0.93663
vn -0.46573 0.31972 -0.82515
vn 0.8786 -0.1654 0.448
vn -0.62848 0.28029 -0.72557
vn 0 -0.9999 0.0142
vn -0.99499 -0.0008 -0.1
vn 0.87809 -0.0005 -0.47849
vn -0.99498 0.0012 0.1001
vn 0.76711 0.0012 -0.64151
vn -0.95518 0.0048 0.29599
vn 0.62729 0.0032 -0.77878
vn -0.87753 0.0098 0.47942
vn 0.46468 0.0053 -0.88546
vn 0.0957 0.0337 0.99484
vn -0.76588 0.0157 0.64279
vn 0.28549 0.0068 -0.95836
vn 0.28391 0.0315 0.95833
vn -0.62557 0.0218 0.77986
vn 0.0963 0.0077 -0.99532
vn 0.4627 0.0273 0.8861
vn -0.4627 0.0273 0.8861
vn -0.0963 0.0077 -0.99532
vn 0.62557 0.0218 0.77986
vn -0.28391 0.0315 0.95833
vn -0.28549 0.0068 -0.95836
vn 0.76588 0.0157 0.64279
vn -0.0957 0.0337 0.99484
vn -0.46468 0.0053 -0.88546
vn 0.87753 0.0098 0.47942
vn -0.62729 0.0032 -0.77878
vn 0.95518 0.0048 0.29599
vn -0.76711 0.0012 -0.64151
vn 0.99498 0.0012 0.1001
vn -0.87809 -0.0005 -0.47849
vn 0.99499 -0.0008 -0.1
vn -0.95531 -0.0013 -0.2956
vn 0.0977 -0.54308 0.83398
vt -1.28856 0.99626
vt -1.0022 1.47767
vt -1.02215 1.48981
vt -1.31087 1.00437
vt -1.04539 1.51703
vt -1.33778 1.0257
vt -1.07106 1.55854
vt -1.36833 1.05963
vt -1.09817 1.6129
vt -1.40133 1.10502
vt -1.12562 1.6781
vt -1.43548 1.16019
vt -1.1523 1.75159
vt -1.46937 1.22296
vt -1.17707 1.83037
vt -1.50159 1.2908
vt -1.19888 1.91117
vt -1.53076 1.36088
vt -1.2168 1.99057
vt -1.55565 1.43025
vt -1.23007 2.06525
vt -1.57521 1.49598
vt -1.23816 2.13206
vt -1.58866 1.55535
vt -1.24077 2.18829
vt -1.59546 1.60591
vt -1.23785 2.23174
vt -1.59543 1.6457
vt -1.2296 2.2608
vt -1.58866 1.67324
vt -1.21643 2.27455
vt -1.57553 1.68764
vt -1.19895 2.27271
vt -1.55666 1.68855
vt -1.17792 2.25565
vt -1.53289 1.6762
vt -1.15419 2.22428
vt -1.50521 1.65128
vt -1.12871 2.18004
vt -1.47472 1.61495
vt -1.10243 2.12478
vt -1.44258 1.56873
vt -1.07632 2.06063
vt -1.40998 1.51443
vt -1.05131 1.99001
vt -1.37807 1.45408
vt -1.02826 1.91547
vt -1.34799 1.38985
vt -1.00796 1.83963
vt -1.32076 1.32403
vt -0.99113 1.76515
vt -1.29733 1.25891
vt -0.97834 1.69463
vt -1.27853 1.19677
vt -0.97007 1.63054
vt -1.26504 1.1398
vt -0.96663 1.57521
vt -1.25736 1.09006
vt -0.9682 1.53071
vt -1.25585 1.04941
vt -0.97479 1.49877
vt -1.26063 1.01944
vt -0.74023 1.72038
vt -0.7589 1.78051
vt -0.98624 1.48079
vt -1.27164 1.00143
vt -0.65896 2.10816
vt -0.67152 2.19027
vt 0.00139 2.35818
vt 0.00677 2.27367
vt -0.82341 2.41312
vt -0.81563 2.46049
vt -0.68636 2.2682
vt -0.65838 1.65213
vt -0.67105 1.63292
vt -0.81707 2.10912
vt -0.82435 2.19639
vt -0.75743 2.48461
vt -0.73916 2.44954
vt -0.63874 1.86566
vt -0.6386 1.79555
vt -0.77663 1.85249
vt -0.80461 2.49198
vt -0.68614 1.63004
vt -0.70313 1.64392
vt -0.8279 2.27836
vt -0.72079 2.40036
vt -0.6419 1.73514
vt -0.79268 1.93349
vt -0.79082 2.50656
vt -0.6491 2.02475
vt -0.72139 1.67433
vt -0.82757 2.3516
vt -0.70298 2.33911
vt -0.64856 1.6867
vt -0.80636 2.02024
vt -0.77488 2.50397
vt -0.64228 1.94297
vt 0.00969 2.02521
vt 0.01099 2.10424
vt 0.65165 2.03931
vt 0.64456 1.96035
vt -0.11595 2.3737
vt -0.11441 2.45756
vt 0.01001 2.18803
vt -0.11034 2.53229
vt -0.10393 2.59483
vt -0.09548 2.64271
vt 0.00614 1.95373
vt -0.08534 2.67417
vt -0.03905 1.78785
vt -0.0514 1.80299
vt 0.00045 1.89236
vt -0.07397 2.6882
vt -0.06387 1.83507
vt -0.00719 1.84338
vt -0.06182 2.68457
vt -0.07597 1.88314
vt -0.01655 1.80873
vt -0.0494 2.66373
vt -0.08721 1.94555
vt -0.02729 1.78989
vt -0.03716 2.62682
vt -0.09711 2.02
vt -0.02558 2.5755
vt -0.10525 2.10357
vt -0.01506 2.51192
vt -0.11127 2.19288
vt -0.00597 2.43856
vt -0.11489 2.28421
vt 0.61836 1.77829
vt 0.62763 1.82742
vt 1.24001 1.57043
vt 1.22444 1.52574
vt 0.60785 2.52616
vt 0.61762 2.57427
vt 0.63647 1.88887
vt 0.6273 2.60601
vt 0.59131 1.72187
vt 0.58368 1.73661
vt 0.63652 2.62037
vt 0.57728 1.76825
vt 0.6449 2.61708
vt 0.57239 1.81588
vt 0.60899 1.74341
vt 0.65215 2.5966
vt 0.56923 1.87786
vt 0.59986 1.72427
vt 0.658 2.56005
vt 0.56796 1.95192
vt 0.66227 2.50908
vt 0.56865 2.03517
vt 0.66482 2.44584
vt 0.57131 2.12422
vt 0.66559 2.37279
vt 0.57584 2.21537
vt 0.66458 2.29269
vt 0.58205 2.30477
vt 0.66183 2.20842
vt 0.58968 2.38864
vt 0.65747 2.12297
vt 0.5984 2.46346
vt 1.19559 1.4726
vt 1.20176 1.47568
vt 1.21165 1.45027
vt 1.20339 1.45262
vt 1.39742 2.27679
vt 1.40239 2.27477
vt 1.19506 1.51227
vt 1.20088 1.55407
vt 1.21152 1.4937
vt 1.40332 2.25733
vt 1.2106 1.60883
vt 1.40025 2.22542
vt 1.22388 1.67454
vt 1.39336 2.18053
vt 1.24024 1.74864
vt 1.38297 2.12452
vt 1.25902 1.82814
vt 1.36953 2.0596
vt 1.27946 1.90972
vt 1.35355 1.98822
vt 1.30069 1.98995
vt 1.33562 1.91296
vt 1.32181 2.06542
vt 1.31638 1.83648
vt 1.34194 2.13296
vt 1.29651 1.76145
vt 1.36024 2.1898
vt 1.2767 1.69047
vt 1.37597 2.23369
vt 1.25764 1.62603
vt 1.38851 2.26301
vt 1.1933 1.48486
vt 1.51159 1.57535
vt 1.54698 1.59578
vt 1.48622 0.27282
vt 1.45053 0.27879
vt 1.62128 1.64698
vt 1.60291 1.63228
vt 1.28308 1.52056
vt 1.31962 1.54194
vt 1.57781 1.61499
vt 1.36031 1.56414
vt 1.40347 1.58622
vt 1.44728 1.60726
vt 1.47295 1.55444
vt 1.48988 1.62636
vt 1.43241 1.53378
vt 1.52949 1.64272
vt 1.3914 1.51409
vt 1.56447 1.65568
vt 1.35135 1.49605
vt 1.59342 1.66475
vt 1.31366 1.4803
vt 1.61525 1.6696
vt 1.20331 1.45911
vt 1.27966 1.46741
vt 1.62919 1.67011
vt 1.21158 1.46957
vt 1.25061 1.45787
vt 1.63482 1.66633
vt 1.22803 1.48366
vt 1.22763 1.45206
vt 1.6321 1.65849
vt 1.25215 1.50087
vt 1.32875 0.29474
vt 1.37038 0.28994
vt 1.22077 -0.82787
vt 1.18067 -0.80864
vt 1.33759 0.25775
vt 1.38202 0.25264
vt 1.41145 0.28457
vt 1.42528 0.24841
vt 1.46556 0.24522
vt 1.5012 0.24319
vt 1.28801 0.29878
vt 1.53078 0.24241
vt 1.2496 0.30192
vt 1.55319 0.24288
vt 1.13627 0.30124
vt 1.13587 0.29775
vt 1.21488 0.30405
vt 1.56763 0.24457
vt 1.14397 0.2933
vt 1.18513 0.30508
vt 1.57369 0.24738
vt 1.16039 0.28805
vt 1.16151 0.30496
vt 1.57129 0.2512
vt 1.18462 0.28221
vt 1.14497 0.30367
vt 1.56068 0.25584
vt 1.21579 0.27601
vt 1.54239 0.26113
vt 1.2527 0.26968
vt 1.51724 0.26686
vt 1.29387 0.26351
vt 0.98904 -0.78447
vt 0.76359 -2.05935
vt 0.76862 -2.08443
vt 0.9958 -0.80011
vt 1.30219 -0.98583
vt 1.3371 -0.99523
vt 1.14122 -0.79202
vt 1.36635 -1
vt 1.10381 -0.77859
vt 1.38882 -1.00003
vt 0.99047 -0.77267
vt 1.06979 -0.76886
vt 1.40373 -0.99538
vt 1.0404 -0.76321
vt 1.41063 -0.98632
vt 1.01064 -0.81904
vt 1.01677 -0.76191
vt 1.4094 -0.97329
vt 1.03309 -0.84054
vt 0.99988 -0.76508
vt 1.40023 -0.95685
vt 1.06235 -0.86379
vt 1.38362 -0.93767
vt 1.0973 -0.88782
vt 1.36028 -0.9165
vt 1.13652 -0.91165
vt 1.33116 -0.89413
vt 1.17839 -0.93427
vt 1.29737 -0.87137
vt 1.22116 -0.95473
vt 1.26013 -0.84902
vt 1.26301 -0.97215
vt 0.8483 -2.01722
vt 0.81884 -2.01342
vt 1.16281 -2.33429
vt 1.17102 -2.31769
vt 0.78152 -2.11348
vt 0.79477 -2.01584
vt 1.17138 -2.29596
vt 0.80191 -2.14539
vt 0.77706 -2.02448
vt 1.16403 -2.27003
vt 0.82907 -2.17889
vt 0.76649 -2.03914
vt 1.14938 -2.24092
vt 0.86195 -2.21262
vt 1.12807 -2.20976
vt 0.89923 -2.24516
vt 1.10098 -2.17769
vt 0.93937 -2.27515
vt 1.06914 -2.14588
vt 0.98068 -2.3013
vt 1.0337 -2.11542
vt 1.02143 -2.32252
vt 0.99593 -2.08739
vt 1.0599 -2.33795
vt 0.95716 -2.06276
vt 1.09452 -2.34699
vt 0.91874 -2.04239
vt 1.12391 -2.34935
vt 0.88201 -2.02701
vt 1.14695 -2.34503
vt 0.64531 -2.8877
vt 0.67586 -2.94402
vt 0.77884 -3.08942
vt 0.74406 -3.04705
vt 0.39687 -3.5478
vt 0.42389 -3.60452
vt 0.8868 -2.97641
vt 0.86551 -2.92432
vt 0.70925 -2.9979
vt 0.83988 -2.87088
vt 0.81084 -2.81798
vt 0.77943 -2.76747
vt 0.81213 -3.12328
vt 0.74674 -2.72111
vt 0.84256 -3.1473
vt 0.71393 -2.68053
vt 0.86892 -3.16062
vt 0.68215 -2.6472
vt 0.8902 -3.16285
vt 0.57601 -2.62303
vt 0.57135 -2.649
vt 0.65252 -2.62236
vt 0.90564 -3.15408
vt 0.57341 -2.68423
vt 0.62615 -2.607
vt 0.91474 -3.13486
vt 0.58223 -2.7275
vt 0.60404 -2.60181
vt 0.91727 -3.1061
vt 0.59755 -2.77717
vt 0.58709 -2.60716
vt 0.91324 -3.06906
vt 0.61885 -2.83131
vt 0.90293 -3.02527
vt 0.28154 -3.08616
vt 0.28362 -3.0441
vt 0.29081 -3.01432
vt 0.30275 -2.99774
vt 0.31889 -2.99475
vt 0.33856 -3.00523
vt 0.36099 -3.02857
vt 0.38532 -3.06375
vt 0.41066 -3.10938
vt 0.43612 -3.16375
vt 0.46079 -3.2249
vt 0.48382 -3.29067
vt 0.5044 -3.35876
vt 0.52179 -3.4268
vt 0.53536 -3.49237
vt 0.54457 -3.5531
vt 0.54904 -3.60671
vt 0.54853 -3.65111
vt 0.54297 -3.68448
vt 0.53248 -3.70535
vt 0.51738 -3.71267
vt 0.49818 -3.70591
vt 0.4756 -3.6851
vt 0.4505 -3.65089
vt 0.37056 -3.48306
vt 0.34609 -3.413
vt 0.32447 -3.34057
vt 0.30659 -3.26881
vt 0.29319 -3.20071
vt 0.28474 -3.13902
usemtl mat2
f 33/33/8 34/34/8 35/35/8
f 33/33/8 35/35/8 36/36/8
f 36/36/9 35/35/9 37/37/9
f 36/36/9 37/37/9 38/38/9
f 38/38/10 37/37/10 39/39/10
f 38/38/10 39/39/10 40/40/10
f 40/40/11 39/39/11 41/41/11
f 40/40/11 41/41/11 42/42/11
f 42/42/12 41/41/12 43/43/12
f 42/42/12 43/43/12 44/44/12
f 44/44/13 43/43/13 45/45/13
f 44/44/13 45/45/13 46/46/13
f 46/46/14 45/45/14 47/47/14
f 46/46/14 47/47/14 48/48/14
f 48/48/15 47/47/15 49/49/15
f 48/48/15 49/49/15 50/50/15
f 50/50/16 49/49/16 51/51/16
f 50/50/16 51/51/16 52/52/16
f 52/52/17 51/51/17 53/53/17
f 52/52/17 53/53/17 54/54/17
f 54/54/18 53/53/18 55/55/18
f 54/54/18 55/55/18 56/56/18
f 56/56/19 55/55/19 57/57/19
f 56/56/19 57/57/19 58/58/19
f 58/58/20 57/57/20 59/59/20
f 58/58/20 59/59/20 60/60/20
f 60/60/21 59/59/21 61/61/21
f 60/60/21 61/61/21 62/62/21
f 62/62/22 61/61/22 63/63/22
f 62/62/22 63/63/22 64/64/22
f 64/64/23 63/63/23 65/65/23
f 64/64/23 65/65/23 66/66/23
f 66/66/24 65/65/24 67/67/24
f 66/66/24 67/67/24 68/68/24
f 68/68/25 67/67/25 69/69/25
f 68/68/25 69/69/25 70/70/25
f 70/70/26 69/69/26 71/71/26
f 70/70/26 71/71/26 72/72/26
f 72/72/27 71/71/27 73/73/27
f 72/72/27 73/73/27 74/74/27
f 74/74/28 73/73/28 75/75/28
f 74/74/28 75/75/28 76/76/28
f 76/76/29 75/75/29 77/77/29
f 76/76/29 77/77/29 78/78/29
f 78/78/30 77/77/30 79/79/30
f 78/78/30 79/79/30 80/80/30
f 80/80/31 79/79/31 81/81/31
f 80/80/31 81/81/31 82/82/31
f 82/82/32 81/81/32 83/83/32
f 82/82/32 83/83/32 84/84/32
f 84/84/33 83/83/33 85/85/33
f 84/84/33 85/85/33 86/86/33
f 86/86/34 85/85/34 87/87/34
f 86/86/34 87/87/34 88/88/34
f 88/88/35 87/87/35 89/89/35
f 88/88/35 89/89/35 90/90/35
f 90/90/36 89/89/36 91/91/36
f 90/90/36 91/91/36 92/92/36
f 92/92/37 91/91/37 93/93/37
f 92/92/37 93/93/37 94/94/37
f 41/41/38 39/39/38 95/95/38
f 41/41/38 95/95/38 96/96/38
f 94/94/39 93/93/39 97/97/39
f 94/94/39 97/97/39 98/98/39
f 98/98/40 97/97/40 34/34/40
f 98/98/40 34/34/40 33/33/40
f 98/98/41 33/33/41 36/36/41
f 36/36/41 38/38/41 40/40/41
f 40/40/41 42/42/41 44/44/41
f 44/44/41 46/46/41 48/48/41
f 48/48/41 50/50/41 52/52/41
f 52/52/41 54/54/41 56/56/41
f 56/56/41 58/58/41 60/60/41
f 60/60/41 62/62/41 64/64/41
f 64/64/41 66/66/41 68/68/41
f 68/68/41 70/70/41 72/72/41
f 72/72/41 74/74/41 76/76/41
f 76/76/41 78/78/41 80/80/41
f 80/80/41 82/82/41 84/84/41
f 84/84/41 86/86/41 88/88/41
f 88/88/41 90/90/41 92/92/41
f 92/92/41 94/94/41 98/98/41
f 98/98/41 36/36/41 40/40/41
f 40/40/41 44/44/41 48/48/41
f 48/48/41 52/52/41 56/56/41
f 56/56/41 60/60/41 64/64/41
f 64/64/41 68/68/41 72/72/41
f 72/72/41 76/76/41 80/80/41
f 80/80/41 84/84/41 88/88/41
f 88/88/41 92/92/41 98/98/41
f 98/98/41 40/40/41 48/48/41
f 48/48/41 56/56/41 64/64/41
f 64/64/41 72/72/41 80/80/41
f 80/80/41 88/88/41 98/98/41
f 98/98/41 48/48/41 64/64/41
f 64/64/41 80/80/41 98/98/41
f 99/99/42 100/100/42 101/101/42
f 99/99/42 101/101/42 102/102/42
f 59/59/43 57/57/43 103/103/43
f 59/59/43 103/103/43 104/104/43
f 77/77/44 75/75/44 105/105/44
f 77/77/44 105/105/44 100/100/44
f 97/97/45 93/93/45 106/106/45
f 97/97/45 106/106/45 107/107/45
f 51/51/46 49/49/46 108/108/46
f 51/51/46 108/108/46 109/109/46
f 69/69/47 67/67/47 110/110/47
f 69/69/47 110/110/47 111/111/47
f 87/87/48 85/85/48 112/112/48
f 87/87/48 112/112/48 113/113/48
f 43/43/49 41/41/49 96/96/49
f 43/43/49 96/96/49 114/114/49
f 61/61/50 59/59/50 104/104/50
f 61/61/50 104/104/50 115/115/50
f 79/79/51 77/77/51 100/100/51
f 79/79/51 100/100/51 99/99/51
f 35/35/52 34/34/52 116/116/52
f 35/35/52 116/116/52 117/117/52
f 34/34/53 97/97/53 107/107/53
f 34/34/53 107/107/53 116/116/53
f 53/53/54 51/51/54 109/109/54
f 53/53/54 109/109/54 118/118/54
f 71/71/55 69/69/55 111/111/55
f 71/71/55 111/111/55 119/119/55
f 89/89/56 87/87/56 113/113/56
f 89/89/56 113/113/56 120/120/56
f 45/45/57 43/43/57 114/114/57
f 45/45/57 114/114/57 121/121/57
f 63/63/58 61/61/58 115/115/58
f 63/63/58 115/115/58 122/122/58
f 81/81/59 79/79/59 99/99/59
f 81/81/59 99/99/59 123/123/59
f 37/37/60 35/35/60 117/117/60
f 37/37/60 117/117/60 124/124/60
f 55/55/61 53/53/61 118/118/61
f 55/55/61 118/118/61 125/125/61
f 73/73/62 71/71/62 119/119/62
f 73/73/62 119/119/62 126/126/62
f 91/91/63 89/89/63 120/120/63
f 91/91/63 120/120/63 127/127/63
f 47/47/64 45/45/64 121/121/64
f 47/47/64 121/121/64 128/128/64
f 65/65/65 63/63/65 122/122/65
f 65/65/65 122/122/65 129/129/65
f 83/83/66 81/81/66 123/123/66
f 83/83/66 123/123/66 130/130/66
f 39/39/67 37/37/67 124/124/67
f 39/39/67 124/124/67 95/95/67
f 57/57/68 55/55/68 125/125/68
f 57/57/68 125/125/68 103/103/68
f 75/75/69 73/73/69 126/126/69
f 75/75/69 126/126/69 105/105/69
f 93/93/70 91/91/70 127/127/70
f 93/93/70 127/127/70 106/106/70
f 49/49/71 47/47/71 128/128/71
f 49/49/71 128/128/71 108/108/71
f 67/67/72 65/65/72 129/129/72
f 67/67/72 129/129/72 110/110/72
f 85/85/73 83/83/73 130/130/73
f 85/85/73 130/130/73 112/112/73
f 131/131/74 132/132/74 133/133/74
f 131/131/74 133/133/74 134/134/74
f 118/118/75 109/109/75 135/135/75
f 118/118/75 135/135/75 136/136/75
f 123/123/76 99/99/76 102/102/76
f 123/123/76 102/102/76 137/137/76
f 125/125/77 118/118/77 136/136/77
f 125/125/77 136/136/77 138/138/77
f 130/130/78 123/123/78 137/137/78
f 130/130/78 137/137/78 132/132/78
f 103/103/79 125/125/79 138/138/79
f 103/103/79 138/138/79 139/139/79
f 112/112/80 130/130/80 132/132/80
f 112/112/80 132/132/80 131/131/80
f 104/104/81 103/103/81 139/139/81
f 104/104/81 139/139/81 140/140/81
f 113/113/82 112/112/82 131/131/82
f 113/113/82 131/131/82 141/141/82
f 115/115/83 104/104/83 140/140/83
f 115/115/83 140/140/83 142/142/83
f 117/117/84 116/116/84 143/143/84
f 117/117/84 143/143/84 144/144/84
f 120/120/85 113/113/85 141/141/85
f 120/120/85 141/141/85 145/145/85
f 122/122/86 115/115/86 142/142/86
f 122/122/86 142/142/86 146/146/86
f 124/124/87 117/117/87 144/144/87
f 124/124/87 144/144/87 147/147/87
f 127/127/88 120/120/88 145/145/88
f 127/127/88 145/145/88 148/148/88
f 129/129/89 122/122/89 146/146/89
f 129/129/89 146/146/89 149/149/89
f 95/95/90 124/124/90 147/147/90
f 95/95/90 147/147/90 150/150/90
f 106/106/91 127/127/91 148/148/91
f 106/106/91 148/148/91 151/151/91
f 110/110/92 129/129/92 149/149/92
f 110/110/92 149/149/92 152/152/92
f 96/96/93 95/95/93 150/150/93
f 96/96/93 150/150/93 153/153/93
f 107/107/94 106/106/94 151/151/94
f 107/107/94 151/151/94 154/154/94
f 111/111/95 110/110/95 152/152/95
f 111/111/95 152/152/95 155/155/95
f 114/114/96 96/96/96 153/153/96
f 114/114/96 153/153/96 156/156/96
f 116/116/97 107/107/97 154/154/97
f 116/116/97 154/154/97 143/143/97
f 119/119/98 111/111/98 155/155/98
f 119/119/98 155/155/98 157/157/98
f 121/121/99 114/114/99 156/156/99
f 121/121/99 156/156/99 158/158/99
f 126/126/100 119/119/100 157/157/100
f 126/126/100 157/157/100 159/159/100
f 128/128/101 121/121/101 158/158/101
f 128/128/101 158/158/101 160/160/101
f 105/105/102 126/126/102 159/159/102
f 105/105/102 159/159/102 161/161/102
f 108/108/103 128/128/103 160/160/103
f 108/108/103 160/160/103 162/162/103
f 100/100/104 105/105/104 161/161/104
f 100/100/104 161/161/104 101/101/104
f 109/109/105 108/108/105 162/162/105
f 109/109/105 162/162/105 135/135/105
f 163/163/106 164/164/106 165/165/106
f 163/163/106 165/165/106 166/166/106
f 140/140/107 139/139/107 167/167/107
f 140/140/107 167/167/107 168/168/107
f 141/141/108 131/131/108 134/134/108
f 141/141/108 134/134/108 169/169/108
f 142/142/109 140/140/109 168/168/109
f 142/142/109 168/168/109 170/170/109
f 144/144/110 143/143/110 171/171/110
f 144/144/110 171/171/110 172/172/110
f 145/145/111 141/141/111 169/169/111
f 145/145/111 169/169/111 164/164/111
f 146/146/112 142/142/112 170/170/112
f 146/146/112 170/170/112 173/173/112
f 147/147/113 144/144/113 172/172/113
f 147/147/113 172/172/113 174/174/113
f 148/148/114 145/145/114 164/164/114
f 148/148/114 164/164/114 163/163/114
f 149/149/115 146/146/115 173/173/115
f 149/149/115 173/173/115 175/175/115
f 150/150/116 147/147/116 174/174/116
f 150/150/116 174/174/116 176/176/116
f 151/151/117 148/148/117 163/163/117
f 151/151/117 163/163/117 177/177/117
f 152/152/118 149/149/118 175/175/118
f 152/152/118 175/175/118 178/178/118
f 153/153/119 150/150/119 176/176/119
f 153/153/119 176/176/119 179/179/119
f 154/154/120 151/151/120 177/177/120
f 154/154/120 177/177/120 180/180/120
f 155/155/121 152/152/121 178/178/121
f 155/155/121 178/178/121 181/181/121
f 156/156/122 153/153/122 179/179/122
f 156/156/122 179/179/122 182/182/122
f 143/143/123 154/154/123 180/180/123
f 143/143/123 180/180/123 171/171/123
f 157/157/124 155/155/124 181/181/124
f 157/157/124 181/181/124 183/183/124
f 158/158/125 156/156/125 182/182/125
f 158/158/125 182/182/125 184/184/125
f 159/159/126 157/157/126 183/183/126
f 159/159/126 183/183/126 185/185/126
f 160/160/127 158/158/127 184/184/127
f 160/160/127 184/184/127 186/186/127
f 161/161/128 159/159/128 185/185/128
f 161/161/128 185/185/128 187/187/128
f 162/162/129 160/160/129 186/186/129
f 162/162/129 186/186/129 188/188/129
f 101/101/130 161/161/130 187/187/130
f 101/101/130 187/187/130 189/189/130
f 135/135/131 162/162/131 188/188/131
f 135/135/131 188/188/131 190/190/131
f 102/102/132 101/101/132 189/189/132
f 102/102/132 189/189/132 191/191/132
f 136/136/133 135/135/133 190/190/133
f 136/136/133 190/190/133 192/192/133
f 137/137/134 102/102/134 191/191/134
f 137/137/134 191/191/134 193/193/134
f 138/138/135 136/136/135 192/192/135
f 138/138/135 192/192/135 194/194/135
f 132/132/136 137/137/136 193/193/136
f 132/132/136 193/193/136 133/133/136
f 139/139/137 138/138/137 194/194/137
f 139/139/137 194/194/137 167/167/137
f 195/195/138 196/196/138 197/197/138
f 195/195/138 197/197/138 198/198/138
f 175/175/139 173/173/139 199/199/139
f 175/175/139 199/199/139 200/200/139
f 176/176/140 174/174/140 201/201/140
f 176/176/140 201/201/140 202/202/140
f 177/177/141 163/163/141 166/166/141
f 177/177/141 166/166/141 203/203/141
f 178/178/142 175/175/142 200/200/142
f 178/178/142 200/200/142 204/204/142
f 179/179/143 176/176/143 202/202/143
f 179/179/143 202/202/143 205/205/143
f 180/180/144 177/177/144 203/203/144
f 180/180/144 203/203/144 196/196/144
f 181/181/145 178/178/145 204/204/145
f 181/181/145 204/204/145 206/206/145
f 182/182/146 179/179/146 205/205/146
f 182/182/146 205/205/146 207/207/146
f 171/171/147 180/180/147 196/196/147
f 171/171/147 196/196/147 195/195/147
f 183/183/148 181/181/148 206/206/148
f 183/183/148 206/206/148 208/208/148
f 184/184/149 182/182/149 207/207/149
f 184/184/149 207/207/149 209/209/149
f 185/185/150 183/183/150 208/208/150
f 185/185/150 208/208/150 210/210/150
f 186/186/151 184/184/151 209/209/151
f 186/186/151 209/209/151 211/211/151
f 187/187/152 185/185/152 210/210/152
f 187/187/152 210/210/152 212/212/152
f 188/188/153 186/186/153 211/211/153
f 188/188/153 211/211/153 213/213/153
f 189/189/154 187/187/154 212/212/154
f 189/189/154 212/212/154 214/214/154
f 190/190/155 188/188/155 213/213/155
f 190/190/155 213/213/155 215/215/155
f 191/191/156 189/189/156 214/214/156
f 191/191/156 214/214/156 216/216/156
f 192/192/157 190/190/157 215/215/157
f 192/192/157 215/215/157 217/217/157
f 193/193/158 191/191/158 216/216/158
f 193/193/158 216/216/158 218/218/158
f 194/194/159 192/192/159 217/217/159
f 194/194/159 217/217/159 219/219/159
f 133/133/160 193/193/160 218/218/160
f 133/133/160 218/218/160 220/220/160
f 167/167/161 194/194/161 219/219/161
f 167/167/161 219/219/161 221/221/161
f 134/134/162 133/133/162 220/220/162
f 134/134/162 220/220/162 222/222/162
f 168/168/163 167/167/163 221/221/163
f 168/168/163 221/221/163 223/223/163
f 169/169/164 134/134/164 222/222/164
f 169/169/164 222/222/164 224/224/164
f 170/170/165 168/168/165 223/223/165
f 170/170/165 223/223/165 225/225/165
f 172/172/166 171/171/166 195/195/166
f 172/172/166 195/195/166 226/226/166
f 164/164/167 169/169/167 224/224/167
f 164/164/167 224/224/167 165/165/167
f 173/173/168 170/170/168 225/225/168
f 173/173/168 225/225/168 199/199/168
f 174/174/169 172/172/169 226/226/169
f 174/174/169 226/226/169 201/201/169
f 227/227/170 228/228/170 229/229/170
f 227/227/170 229/229/170 230/230/170
f 208/208/171 206/206/171 231/231/171
f 208/208/171 231/231/171 232/232/171
f 209/209/172 207/207/172 233/233/172
f 209/209/172 233/233/172 234/234/172
f 210/210/173 208/208/173 232/232/173
f 210/210/173 232/232/173 235/235/173
f 211/211/174 209/209/174 234/234/174
f 211/211/174 234/234/174 236/236/174
f 212/212/175 210/210/175 235/235/175
f 212/212/175 235/235/175 228/228/175
f 213/213/176 211/211/176 236/236/176
f 213/213/176 236/236/176 237/237/176
f 214/214/177 212/212/177 228/228/177
f 214/214/177 228/228/177 227/227/177
f 215/215/178 213/213/178 237/237/178
f 215/215/178 237/237/178 238/238/178
f 216/216/179 214/214/179 227/227/179
f 216/216/179 227/227/179 239/239/179
f 217/217/180 215/215/180 238/238/180
f 217/217/180 238/238/180 240/240/180
f 218/218/181 216/216/181 239/239/181
f 218/218/181 239/239/181 241/241/181
f 219/219/182 217/217/182 240/240/182
f 219/219/182 240/240/182 242/242/182
f 220/220/183 218/218/183 241/241/183
f 220/220/183 241/241/183 243/243/183
f 221/221/184 219/219/184 242/242/184
f 221/221/184 242/242/184 244/244/184
f 222/222/185 220/220/185 243/243/185
f 222/222/185 243/243/185 245/245/185
f 223/223/186 221/221/186 244/244/186
f 223/223/186 244/244/186 246/246/186
f 224/224/187 222/222/187 245/245/187
f 224/224/187 245/245/187 247/247/187
f 225/225/188 223/223/188 246/246/188
f 225/225/188 246/246/188 248/248/188
f 226/226/189 195/195/189 198/198/189
f 226/226/189 198/198/189 249/249/189
f 165/165/190 224/224/190 247/247/190
f 165/165/190 247/247/190 250/250/190
f 199/199/191 225/225/191 248/248/191
f 199/199/191 248/248/191 251/251/191
f 201/201/192 226/226/192 249/249/192
f 201/201/192 249/249/192 252/252/192
f 166/166/193 165/165/193 250/250/193
f 166/166/193 250/250/193 253/253/193
f 200/200/194 199/199/194 251/251/194
f 200/200/194 251/251/194 254/254/194
f 202/202/195 201/201/195 252/252/195
f 202/202/195 252/252/195 255/255/195
f 203/203/196 166/166/196 253/253/196
f 203/203/196 253/253/196 256/256/196
f 204/204/197 200/200/197 254/254/197
f 204/204/197 254/254/197 257/257/197
f 205/205/198 202/202/198 255/255/198
f 205/205/198 255/255/198 258/258/198
f 196/196/199 203/203/199 256/256/199
f 196/196/199 256/256/199 197/197/199
f 206/206/200 204/204/200 257/257/200
f 206/206/200 257/257/200 231/231/200
f 207/207/201 205/205/201 258/258/201
f 207/207/201 258/258/201 233/233/201
f 259/259/202 260/260/202 261/261/202
f 259/259/202 261/261/202 262/262/202
f 238/238/203 237/237/203 263/263/203
f 238/238/203 263/263/203 264/264/203
f 239/239/204 227/227/204 230/230/204
f 239/239/204 230/230/204 265/265/204
f 240/240/205 238/238/205 264/264/205
f 240/240/205 264/264/205 266/266/205
f 241/241/206 239/239/206 265/265/206
f 241/241/206 265/265/206 260/260/206
f 242/242/207 240/240/207 266/266/207
f 242/242/207 266/266/207 267/267/207
f 243/243/208 241/241/208 260/260/208
f 243/243/208 260/260/208 259/259/208
f 244/244/209 242/242/209 267/267/209
f 244/244/209 267/267/209 268/268/209
f 245/245/210 243/243/210 259/259/210
f 245/245/210 259/259/210 269/269/210
f 246/246/211 244/244/211 268/268/211
f 246/246/211 268/268/211 270/270/211
f 247/247/212 245/245/212 269/269/212
f 247/247/212 269/269/212 271/271/212
f 248/248/213 246/246/213 270/270/213
f 248/248/213 270/270/213 272/272/213
f 249/249/214 198/198/214 273/273/214
f 249/249/214 273/273/214 274/274/214
f 250/250/215 247/247/215 271/271/215
f 250/250/215 271/271/215 275/275/215
f 251/251/216 248/248/216 272/272/216
f 251/251/216 272/272/216 276/276/216
f 252/252/217 249/249/217 274/274/217
f 252/252/217 274/274/217 277/277/217
f 253/253/218 250/250/218 275/275/218
f 253/253/218 275/275/218 278/278/218
f 254/254/219 251/251/219 276/276/219
f 254/254/219 276/276/219 279/279/219
f 255/255/220 252/252/220 277/277/220
f 255/255/220 277/277/220 280/280/220
f 256/256/221 253/253/221 278/278/221
f 256/256/221 278/278/221 281/281/221
f 257/257/222 254/254/222 279/279/222
f 257/257/222 279/279/222 282/282/222
f 258/258/223 255/255/223 280/280/223
f 258/258/223 280/280/223 283/283/223
f 197/197/224 256/256/224 281/281/224
f 197/197/224 281/281/224 284/284/224
f 231/231/225 257/257/225 282/282/225
f 231/231/225 282/282/225 285/285/225
f 233/233/226 258/258/226 283/283/226
f 233/233/226 283/283/226 286/286/226
f 198/198/227 197/197/227 284/284/227
f 198/198/227 284/284/227 273/273/227
f 232/232/228 231/231/228 285/285/228
f 232/232/228 285/285/228 287/287/228
f 234/234/229 233/233/229 286/286/229
f 234/234/229 286/286/229 288/288/229
f 235/235/230 232/232/230 287/287/230
f 235/235/230 287/287/230 289/289/230
f 236/236/231 234/234/231 288/288/231
f 236/236/231 288/288/231 290/290/231
f 228/228/232 235/235/232 289/289/232
f 228/228/232 289/289/232 229/229/232
f 237/237/233 236/236/233 290/290/233
f 237/237/233 290/290/233 263/263/233
f 291/291/234 292/292/234 293/293/234
f 291/291/234 293/293/234 294/294/234
f 268/268/235 267/267/235 295/295/235
f 268/268/235 295/295/235 296/296/235
f 269/269/236 259/259/236 262/262/236
f 269/269/236 262/262/236 297/297/236
f 270/270/237 268/268/237 296/296/237
f 270/270/237 296/296/237 298/298/237
f 271/271/238 269/269/238 297/297/238
f 271/271/238 297/297/238 299/299/238
f 272/272/239 270/270/239 298/298/239
f 272/272/239 298/298/239 300/300/239
f 274/274/240 273/273/240 301/301/240
f 274/274/240 301/301/240 291/291/240
f 275/275/241 271/271/241 299/299/241
f 275/275/241 299/299/241 302/302/241
f 276/276/242 272/272/242 300/300/242
f 276/276/242 300/300/242 303/303/242
f 277/277/243 274/274/243 291/291/243
f 277/277/243 291/291/243 294/294/243
f 278/278/244 275/275/244 302/302/244
f 278/278/244 302/302/244 304/304/244
f 279/279/245 276/276/245 303/303/245
f 279/279/245 303/303/245 305/305/245
f 280/280/246 277/277/246 294/294/246
f 280/280/246 294/294/246 306/306/246
f 281/281/247 278/278/247 304/304/247
f 281/281/247 304/304/247 307/307/247
f 282/282/248 279/279/248 305/305/248
f 282/282/248 305/305/248 308/308/248
f 283/283/249 280/280/249 306/306/249
f 283/283/249 306/306/249 309/309/249
f 284/284/250 281/281/250 307/307/250
f 284/284/250 307/307/250 310/310/250
f 285/285/251 282/282/251 308/308/251
f 285/285/251 308/308/251 311/311/251
f 286/286/252 283/283/252 309/309/252
f 286/286/252 309/309/252 312/312/252
f 273/273/253 284/284/253 310/310/253
f 273/273/253 310/310/253 301/301/253
f 287/287/254 285/285/254 311/311/254
f 287/287/254 311/311/254 313/313/254
f 288/288/255 286/286/255 312/312/255
f 288/288/255 312/312/255 314/314/255
f 289/289/256 287/287/256 313/313/256
f 289/289/256 313/313/256 315/315/256
f 290/290/257 288/288/257 314/314/257
f 290/290/257 314/314/257 316/316/257
f 229/229/258 289/289/258 315/315/258
f 229/229/258 315/315/258 317/317/258
f 263/263/259 290/290/259 316/316/259
f 263/263/259 316/316/259 318/318/259
f 230/230/260 229/229/260 317/317/260
f 230/230/260 317/317/260 319/319/260
f 264/264/261 263/263/261 318/318/261
f 264/264/261 318/318/261 320/320/261
f 265/265/262 230/230/262 319/319/262
f 265/265/262 319/319/262 321/321/262
f 266/266/263 264/264/263 320/320/263
f 266/266/263 320/320/263 322/322/263
f 260/260/264 265/265/264 321/321/264
f 260/260/264 321/321/264 261/261/264
f 267/267/265 266/266/265 322/322/265
f 267/267/265 322/322/265 295/295/265
f 302/302/266 323/323/266 324/324/266
f 302/302/266 324/324/266 304/304/266
f 303/303/267 325/325/267 326/326/267
f 303/303/267 326/326/267 305/305/267
f 294/294/268 293/293/268 327/327/268
f 294/294/268 327/327/268 306/306/268
f 304/304/269 324/324/269 328/328/269
f 304/304/269 328/328/269 307/307/269
f 305/305/270 326/326/270 329/329/270
f 305/305/270 329/329/270 308/308/270
f 306/306/271 327/327/271 330/330/271
f 306/306/271 330/330/271 309/309/271
f 307/307/272 328/328/272 331/331/272
f 307/307/272 331/331/272 310/310/272
f 308/308/273 329/329/273 332/332/273
f 308/308/273 332/332/273 311/311/273
f 309/309/274 330/330/274 333/333/274
f 309/309/274 333/333/274 312/312/274
f 310/310/275 331/331/275 334/334/275
f 310/310/275 334/334/275 301/301/275
f 311/311/276 332/332/276 335/335/276
f 311/311/276 335/335/276 313/313/276
f 312/312/277 333/333/277 336/336/277
f 312/312/277 336/336/277 314/314/277
f 313/313/278 335/335/278 337/337/278
f 313/313/278 337/337/278 315/315/278
f 314/314/279 336/336/279 338/338/279
f 314/314/279 338/338/279 316/316/279
f 315/315/280 337/337/280 339/339/280
f 315/315/280 339/339/280 317/317/280
f 316/316/281 338/338/281 340/340/281
f 316/316/281 340/340/281 318/318/281
f 317/317/282 339/339/282 341/341/282
f 317/317/282 341/341/282 319/319/282
f 318/318/283 340/340/283 342/342/283
f 318/318/283 342/342/283 320/320/283
f 319/319/284 341/341/284 343/343/284
f 319/319/284 343/343/284 321/321/284
f 320/320/285 342/342/285 344/344/285
f 320/320/285 344/344/285 322/322/285
f 321/321/286 343/343/286 345/345/286
f 321/321/286 345/345/286 261/261/286
f 322/322/287 344/344/287 346/346/287
f 322/322/287 346/346/287 295/295/287
f 261/261/288 345/345/288 347/347/288
f 261/261/288 347/347/288 262/262/288
f 295/295/289 346/346/289 348/348/289
f 295/295/289 348/348/289 296/296/289
f 262/262/290 347/347/290 349/349/290
f 262/262/290 349/349/290 297/297/290
f 296/296/291 348/348/291 350/350/291
f 296/296/291 350/350/291 298/298/291
f 297/297/292 349/349/292 351/351/292
f 297/297/292 351/351/292 299/299/292
f 298/298/293 350/350/293 352/352/293
f 298/298/293 352/352/293 300/300/293
f 299/299/294 351/351/294 323/323/294
f 299/299/294 323/323/294 302/302/294
f 300/300/295 352/352/295 325/325/295
f 300/300/295 325/325/295 303/303/295
f 338/338/296 336/336/296 353/353/296
f 338/338/296 353/353/296 354/354/296
f 355/355/297 356/356/297 357/357/297
f 355/355/297 357/357/297 358/358/297
f 339/339/298 337/337/298 359/359/298
f 339/339/298 359/359/298 360/360/298
f 340/340/299 338/338/299 354/354/299
f 340/340/299 354/354/299 361/361/299
f 341/341/300 339/339/300 360/360/300
f 341/341/300 360/360/300 362/362/300
f 342/342/301 340/340/301 361/361/301
f 342/342/301 361/361/301 356/356/301
f 343/343/302 341/341/302 362/362/302
f 343/343/302 362/362/302 363/363/302
f 344/344/303 342/342/303 356/356/303
f 344/344/303 356/356/303 355/355/303
f 345/345/304 343/343/304 363/363/304
f 345/345/304 363/363/304 364/364/304
f 346/346/305 344/344/305 355/355/305
f 346/346/305 355/355/305 365/365/305
f 347/347/306 345/345/306 364/364/306
f 347/347/306 364/364/306 366/366/306
f 348/348/307 346/346/307 365/365/307
f 348/348/307 365/365/307 367/367/307
f 349/349/308 347/347/308 366/366/308
f 349/349/308 366/366/308 368/368/308
f 350/350/309 348/348/309 367/367/309
f 350/350/309 367/367/309 369/369/309
f 351/351/310 349/349/310 368/368/310
f 351/351/310 368/368/310 370/370/310
f 352/352/311 350/350/311 369/369/311
f 352/352/311 369/369/311 371/371/311
f 292/292/312 334/334/312 372/372/312
f 292/292/312 372/372/312 373/373/312
f 323/323/313 351/351/313 370/370/313
f 323/323/313 370/370/313 374/374/313
f 325/325/314 352/352/314 371/371/314
f 325/325/314 371/371/314 375/375/314
f 293/293/315 292/292/315 373/373/315
f 293/293/315 373/373/315 376/376/315
f 324/324/316 323/323/316 374/374/316
f 324/324/316 374/374/316 377/377/316
f 326/326/317 325/325/317 375/375/317
f 326/326/317 375/375/317 378/378/317
f 327/327/318 293/293/318 376/376/318
f 327/327/318 376/376/318 379/379/318
f 328/328/319 324/324/319 377/377/319
f 328/328/319 377/377/319 380/380/319
f 329/329/320 326/326/320 378/378/320
f 329/329/320 378/378/320 381/381/320
f 330/330/321 327/327/321 379/379/321
f 330/330/321 379/379/321 382/382/321
f 331/331/322 328/328/322 380/380/322
f 331/331/322 380/380/322 383/383/322
f 332/332/323 329/329/323 381/381/323
f 332/332/323 381/381/323 384/384/323
f 333/333/324 330/330/324 382/382/324
f 333/333/324 382/382/324 385/385/324
f 334/334/325 331/331/325 383/383/325
f 334/334/325 383/383/325 372/372/325
f 335/335/326 332/332/326 384/384/326
f 335/335/326 384/384/326 386/386/326
f 336/336/327 333/333/327 385/385/327
f 336/336/327 385/385/327 353/353/327
f 337/337/328 335/335/328 386/386/328
f 337/337/328 386/386/328 359/359/328
f 387/387/329 388/388/329 389/389/329
f 389/389/329 390/390/329 391/391/329
f 391/391/329 392/392/329 393/393/329
f 393/393/329 394/394/329 395/395/329
f 395/395/329 396/396/329 397/397/329
f 397/397/329 398/398/329 399/399/329
f 399/399/329 400/400/329 401/401/329
f 401/401/329 402/402/329 403/403/329
f 403/403/329 404/404/329 405/405/329
f 405/405/329 406/406/329 407/407/329
f 407/407/329 408/408/329 409/409/329
f 409/409/329 410/410/329 358/358/329
f 358/358/329 357/357/329 411/411/329
f 411/411/329 412/412/329 413/413/329
f 413/413/329 414/414/329 415/415/329
f 415/415/329 416/416/329 387/387/329
f 387/387/329 389/389/329 391/391/329
f 391/391/329 393/393/329 395/395/329
f 395/395/329 397/397/329 399/399/329
f 399/399/329 401/401/329 403/403/329
f 403/403/329 405/405/329 407/407/329
f 407/407/329 409/409/329 358/358/329
f 358/358/329 411/411/329 413/413/329
f 413/413/329 415/415/329 387/387/329
f 387/387/329 391/391/329 395/395/329
f 395/395/329 399/399/329 403/403/329
f 403/403/329 407/407/329 358/358/329
f 358/358/329 413/413/329 387/387/329
f 387/387/329 395/395/329 403/403/329
f 403/403/329 358/358/329 387/387/329
f 364/364/330 363/363/330 398/398/330
f 364/364/330 398/398/330 397/397/330
f 365/365/331 355/355/331 358/358/331
f 365/365/331 358/358/331 410/410/331
f 366/366/332 364/364/332 397/397/332
f 366/366/332 397/397/332 396/396/332
f 367/367/333 365/365/333 410/410/333
f 367/367/333 410/410/333 409/409/333
f 368/368/334 366/366/334 396/396/334
f 368/368/334 396/396/334 395/395/334
f 369/369/335 367/367/335 409/409/335
f 369/369/335 409/409/335 408/408/335
f 370/370/336 368/368/336 395/395/336
f 370/370/336 395/395/336 394/394/336
f 371/371/337 369/369/337 408/408/337
f 371/371/337 408/408/337 407/407/337
f 373/373/338 372/372/338 389/389/338
f 373/373/338 389/389/338 388/388/338
f 374/374/339 370/370/339 394/394/339
f 374/374/339 394/394/339 393/393/339
f 375/375/340 371/371/340 407/407/340
f 375/375/340 407/407/340 406/406/340
f 376/376/341 373/373/341 388/388/341
f 376/376/341 388/388/341 387/387/341
f 377/377/342 374/374/342 393/393/342
f 377/377/342 393/393/342 392/392/342
f 378/378/343 375/375/343 406/406/343
f 378/378/343 406/406/343 405/405/343
f 379/379/344 376/376/344 387/387/344
f 379/379/344 387/387/344 416/416/344
f 380/380/345 377/377/345 392/392/345
f 380/380/345 392/392/345 391/391/345
f 381/381/346 378/378/346 405/405/346
f 381/381/346 405/405/346 404/404/346
f 382/382/347 379/379/347 416/416/347
f 382/382/347 416/416/347 415/415/347
f 383/383/348 380/380/348 391/391/348
f 383/383/348 391/391/348 390/390/348
f 384/384/349 381/381/349 404/404/349
f 384/384/349 404/404/349 403/403/349
f 385/385/350 382/382/350 415/415/350
f 385/385/350 415/415/350 414/414/350
f 372/372/351 383/383/351 390/390/351
f 372/372/351 390/390/351 389/389/351
f 386/386/352 384/384/352 403/403/352
f 386/386/352 403/403/352 402/402/352
f 353/353/353 385/385/353 414/414/353
f 353/353/353 414/414/353 413/413/353
f 359/359/354 386/386/354 402/402/354
f 359/359/354 402/402/354 401/401/354
f 354/354/355 353/353/355 413/413/355
f 354/354/355 413/413/355 412/412/355
f 360/360/356 359/359/356 401/401/356
f 360/360/356 401/401/356 400/400/356
f 361/361/357 354/354/357 412/412/357
f 361/361/357 412/412/357 411/411/357
f 362/362/358 360/360/358 400/400/358
f 362/362/358 400/400/358 399/399/358
f 356/356/359 361/361/359 411/411/359
f 356/356/359 411/411/359 357/357/359
f 363/363/360 362/362/360 399/399/360
f 363/363/360 399/399/360 398/398/360
f 301/301/361 334/334/361 292/292/361
f 301/301/361 292/292/361 291/291/361
# Vertices: 384, normals: 354, texture coordinates: 384, faces: 764

