# File generated by ImageToStl.com - Free Image and 3D model conversion tools

mtllib Kitchen Rug.mtl

o obj1
v 0.488671 0.00127802 -0.45955399
v 0.488671 0.001278 0
v 0.977341 0.001278 0
v 0.977341 0.00127802 -0.45955399
v 0.488671 -0.00466495 -0
v 0.488671 -0.00466493 -0.45955399
v 0.977341 -0.00466493 -0.45955399
v 0.977341 -0.00466495 -0
v 0.494506 -0.00466497 0.47026601
v 0.488671 -0.00466497 0.45955399
v 0.977341 -0.00466497 0.45955399
v 0.98901099 -0.00466497 0.47026601
v 0.98901099 0.00466493 0.47026601
v 0.977341 0.00127798 0.45955399
v 0.488671 0.00127798 0.45955399
v 0.494506 0.00466493 0.47026601
v 0.494506 0.00466497 -0.47026601
v 0.98901099 0.00466497 -0.47026601
v 0.98901099 -0.00466493 -0.47026601
v 0.494506 -0.00466493 -0.47026601
v 0.98901099 -0.00466495 3E-08
v 0.98901099 0.00466495 3E-08
v -0.98901099 -0.00466493 -0.47026601
v -0.977341 -0.00466493 -0.45955399
v -0.977341 -0.00466495 -0
v -0.98901099 -0.00466495 3E-08
v -0.98901099 0.00466495 3E-08
v -0.977341 0.001278 0
v -0.977341 0.00127802 -0.45955399
v -0.98901099 0.00466497 -0.47026601
v 0.5 -0.00466497 0.480717
v 1 -0.00466497 0.480717
v 1 -0.00466493 -0.480717
v 0.5 -0.00466493 -0.480717
v 1 -0.00466495 -0
v -1 -0.00466493 -0.480717
v -1 -0.00466495 -0
v 0.99720299 0.00208257 -0.478057
v 0.99720299 0.00208255 0
v 1 -0.00173188 -0
v 1 -0.00173186 -0.480717
v 0.5 -0.0017319 0.480717
v 1 -0.0017319 0.480717
v 0.99720299 0.00208253 0.478057
v 0.498602 0.00208253 0.478057
v -1 -0.00173186 -0.480717
v -1 -0.00173188 -0
v -0.99720299 0.00208255 0
v -0.99720299 0.00208257 -0.478057
v 1 -0.00173186 -0.480717
v 0.5 -0.00173186 -0.480717
v 0.498602 0.00208257 -0.478057
v 0.99720299 0.00208257 -0.478057
v 0.5 -0.0017319 0.480717
v 1 -0.0017319 0.480717
v 0.99720299 0.00208255 0
v -0.99720299 0.00208255 0
v -0.99720299 0.00208257 -0.478057
v -0.5 -0.0017319 0.480717
v 0 -0.0017319 0.480717
v 0 0.00208253 0.478057
v -0.498602 0.00208253 0.478057
v -0.5 -0.0017319 0.480717
v -0.5 -0.00466497 0.480717
v 0 -0.00466497 0.480717
v 0 -0.0017319 0.480717
v -0.49450499 -0.00466497 0.47026601
v 0 -0.00466497 0.47026601
v 0 -0.00466497 0.480717
v -0.488671 -0.00466497 0.45955399
v 0 -0.00466497 0.45955399
v -0.488671 -0.00466495 -0
v -0.488671 -0.00466493 -0.45955399
v 0 -0.00466493 -0.45955399
v 0 -0.00466495 -0
v -0.49450499 -0.00466493 -0.47026601
v 0 -0.00466493 -0.47026601
v -0.5 -0.00466493 -0.480717
v 0 -0.00466493 -0.480717
v -0.5 -0.00173186 -0.480717
v 0 -0.00173186 -0.480717
v -0.498602 0.00208257 -0.478057
v 0 0.00208257 -0.478057
v -0.49450499 0.00466497 -0.47026601
v 0 0.00466497 -0.47026601
v -0.488671 0.00127802 -0.45955399
v 0 0.00127802 -0.45955399
v -0.488671 0.001278 0
v 0 0.001278 0
v -0.49450499 0.00466493 0.47026601
v 0 0.00466493 0.47026601
v 0 0.00127798 0.45955399
v -0.488671 0.00127798 0.45955399
v -1 -0.0017319 0.480717
v -0.99720299 0.00208253 0.478057
v -1 -0.0017319 0.480717
v -1 -0.00466497 0.480717
v -0.98901099 -0.00466497 0.47026601
v -0.977341 -0.00466497 0.45955399
v -1 -0.00173186 -0.480717
v -0.98901099 0.00466493 0.47026601
v -0.977341 0.00127798 0.45955399
v 0.99720299 0.00208253 0.478057
v 1 -0.0017319 0.480717
v -1 -0.0017319 0.480717
v -0.99720299 0.00208253 0.478057
vn 0 1 0
vn 0 -1 0
vn 0 0.95348 -0.30146
vn 0 0.95348 0.30146
vn -0.27873 0.96037 0
vn -0.27873 0.96037 0
vn 0.27873 0.96037 0
vn 0.80643 0.59133 0
vn 0 0.57198 0.82027
vn -0.80644 0.59132 0
vn 0 0.57198 -0.82027
vn 0 0 1
vn 0 0 -1
vn 1 0 0
vn -1 0 0
vn 0.15851 0.97488 0.15648
vn 0.15238 0.97481 0.16289
vn 0 0.94921 0.31465
vn 0 0.94921 -0.31465
vn 0 0.94921 -0.31464
vn 0.15238 0.97481 -0.16289
vn 0.15851 0.97488 -0.15648
vn 0.30065 0.95374 0
vn -0.30064 0.95374 0
vn -0.15238 0.97481 -0.16289
vn -0.15851 0.97488 -0.15648
vn -0.15851 0.97488 0.15648
vn -0.15238 0.97481 0.16289
vn -0.27872 0.96037 0
vt 0.46769 0.74125
vt 0.24076 0.74121
vt 0.24072 0.98256
vt 0.46752 0.98243
vt 0.71848 0.74146
vt 0.49149 0.74127
vt 0.49112 0.98265
vt 0.71823 0.98301
vt 0.95086 0.74445
vt 0.94557 0.74157
vt 0.94543 0.98302
vt 0.95073 0.98879
vt 0.00855 0.98815
vt 0.01397 0.98229
vt 0.01381 0.74116
vt 0.00826 0.74405
vt 0.47324 0.74414
vt 0.47294 0.9883
vt 0.48582 0.98841
vt 0.48619 0.74415
vt 0.71823 0.98878
vt 0.24072 0.98856
vt 0.48614 0.01144
vt 0.49144 0.0172
vt 0.71855 0.01706
vt 0.71854 0.01129
vt 0.241 0.0111
vt 0.241 0.01711
vt 0.46784 0.01741
vt 0.47327 0.01154
vt 0.95602 0.74717
vt 0.95589 0.99422
vt 0.48064 0.99383
vt 0.48103 0.74686
vt 0.71822 0.99422
vt 0.48098 0.00602
vt 0.71854 0.00586
vt 0.48195 0.99762
vt 0.71822 0.99801
vt 0.71822 0.99567
vt 0.48064 0.99528
vt 0.00191 0.74676
vt 0.0023 0.99368
vt 0.00459 0.99229
vt 0.00421 0.74607
vt 0.48097 0.00457
vt 0.71854 0.00441
vt 0.71854 0.00207
vt 0.48229 0.00223
vt 0.47919 0.99382
vt 0.47958 0.74685
vt 0.47729 0.74616
vt 0.4769 0.99244
vt 0.95747 0.74717
vt 0.95734 0.99422
vt 0.24072 0.99281
vt 0.241 0.00686
vt 0.47723 0.0074
vt 0.00201 0.25282
vt 0.00195 0.4998
vt 0.00424 0.4998
vt 0.00431 0.25351
vt 0.95766 0.25293
vt 0.95621 0.25292
vt 0.95597 0.49985
vt 0.95742 0.49985
vt 0.95104 0.25564
vt 0.951 0.50007
vt 0.95616 0.50007
vt 0.94575 0.25853
vt 0.9457 0.50006
vt 0.71864 0.25854
vt 0.49164 0.25859
vt 0.49159 0.49993
vt 0.71861 0.5
vt 0.48635 0.25571
vt 0.4863 0.49993
vt 0.48119 0.25299
vt 0.48114 0.49993
vt 0.47974 0.25299
vt 0.47969 0.49993
vt 0.47745 0.25369
vt 0.47739 0.49993
vt 0.47339 0.25571
vt 0.47334 0.49992
vt 0.46784 0.25859
vt 0.46779 0.49992
vt 0.24089 0.2585
vt 0.24082 0.49986
vt 0.00836 0.25554
vt 0.0083 0.4998
vt 0.01385 0.4998
vt 0.01391 0.25842
vt 0.00252 0.00585
vt 0.00482 0.00724
vt 0.9576 0.00578
vt 0.95615 0.00578
vt 0.95099 0.01121
vt 0.94569 0.01698
vt 0.47953 0.00602
vt 0.00877 0.01138
vt 0.01419 0.01725
vt 0.95457 0.99801
vt 0.95589 0.99567
vt 0.95615 0.00433
vt 0.95483 0.00199
usemtl mat0
f 1/1/1 2/2/1 3/3/1
f 3/3/1 4/4/1 1/1/1
f 5/5/2 6/6/2 7/7/2
f 7/7/2 8/8/2 5/5/2
f 9/9/2 10/10/2 11/11/2
f 11/11/2 12/12/2 9/9/2
f 13/13/3 14/14/3 15/15/3
f 15/15/3 16/16/3 13/13/3
f 17/17/4 1/1/4 4/4/4
f 4/4/4 18/18/4 17/17/4
f 19/19/2 7/7/2 6/6/2
f 6/6/2 20/20/2 19/19/2
f 21/21/2 8/8/2 7/7/2
f 7/7/2 19/19/2 21/21/2
f 18/18/5 4/4/5 3/3/6
f 3/3/6 22/22/6 18/18/5
f 23/23/2 24/24/2 25/25/2
f 25/25/2 26/26/2 23/23/2
f 27/27/7 28/28/7 29/29/7
f 29/29/7 30/30/7 27/27/7
f 31/31/2 9/9/2 12/12/2
f 12/12/2 32/32/2 31/31/2
f 33/33/2 19/19/2 20/20/2
f 20/20/2 34/34/2 33/33/2
f 35/35/2 21/21/2 19/19/2
f 19/19/2 33/33/2 35/35/2
f 36/36/2 23/23/2 26/26/2
f 26/26/2 37/37/2 36/36/2
f 38/38/8 39/39/8 40/40/8
f 40/40/8 41/41/8 38/38/8
f 42/42/9 43/43/9 44/44/9
f 44/44/9 45/45/9 42/42/9
f 46/46/10 47/47/10 48/48/10
f 48/48/10 49/49/10 46/46/10
f 50/50/11 51/51/11 52/52/11
f 52/52/11 53/53/11 50/50/11
f 54/54/12 31/31/12 32/32/12
f 32/32/12 55/55/12 54/54/12
f 34/34/13 51/51/13 50/50/13
f 50/50/13 33/33/13 34/34/13
f 40/40/14 35/35/14 33/33/14
f 33/33/14 41/41/14 40/40/14
f 46/46/15 36/36/15 37/37/15
f 37/37/15 47/47/15 46/46/15
f 44/44/16 13/13/17 16/16/18
f 16/16/18 45/45/18 44/44/16
f 52/52/19 17/17/20 18/18/21
f 18/18/21 53/53/22 52/52/19
f 53/53/22 18/18/21 22/22/23
f 22/22/23 56/56/23 53/53/22
f 57/57/24 27/27/24 30/30/25
f 30/30/25 58/58/26 57/57/24
f 59/59/9 60/60/9 61/61/9
f 61/61/9 62/62/9 59/59/9
f 63/63/12 64/64/12 65/65/12
f 65/65/12 66/66/12 63/63/12
f 64/64/2 67/67/2 68/68/2
f 68/68/2 69/69/2 64/64/2
f 67/67/2 70/70/2 71/71/2
f 71/71/2 68/68/2 67/67/2
f 72/72/2 73/73/2 74/74/2
f 74/74/2 75/75/2 72/72/2
f 76/76/2 77/77/2 74/74/2
f 74/74/2 73/73/2 76/76/2
f 78/78/2 79/79/2 77/77/2
f 77/77/2 76/76/2 78/78/2
f 78/78/13 80/80/13 81/81/13
f 81/81/13 79/79/13 78/78/13
f 81/81/11 80/80/11 82/82/11
f 82/82/11 83/83/11 81/81/11
f 82/82/20 84/84/20 85/85/19
f 85/85/19 83/83/19 82/82/20
f 84/84/4 86/86/4 87/87/4
f 87/87/4 85/85/4 84/84/4
f 86/86/1 88/88/1 89/89/1
f 89/89/1 87/87/1 86/86/1
f 90/90/3 91/91/3 92/92/3
f 92/92/3 93/93/3 90/90/3
f 62/62/18 61/61/18 91/91/18
f 91/91/18 90/90/18 62/62/18
f 60/60/9 42/42/9 45/45/9
f 45/45/9 61/61/9 60/60/9
f 66/66/12 65/65/12 31/31/12
f 31/31/12 54/54/12 66/66/12
f 69/69/2 68/68/2 9/9/2
f 9/9/2 31/31/2 69/69/2
f 68/68/2 71/71/2 10/10/2
f 10/10/2 9/9/2 68/68/2
f 75/75/2 74/74/2 6/6/2
f 6/6/2 5/5/2 75/75/2
f 77/77/2 20/20/2 6/6/2
f 6/6/2 74/74/2 77/77/2
f 79/79/2 34/34/2 20/20/2
f 20/20/2 77/77/2 79/79/2
f 79/79/13 81/81/13 51/51/13
f 51/51/13 34/34/13 79/79/13
f 51/51/11 81/81/11 83/83/11
f 83/83/11 52/52/11 51/51/11
f 83/83/19 85/85/19 17/17/20
f 17/17/20 52/52/19 83/83/19
f 85/85/4 87/87/4 1/1/4
f 1/1/4 17/17/4 85/85/4
f 87/87/1 89/89/1 2/2/1
f 2/2/1 1/1/1 87/87/1
f 91/91/3 16/16/3 15/15/3
f 15/15/3 92/92/3 91/91/3
f 61/61/18 45/45/18 16/16/18
f 16/16/18 91/91/18 61/61/18
f 94/94/9 59/59/9 62/62/9
f 62/62/9 95/95/9 94/94/9
f 96/96/12 97/97/12 64/64/12
f 64/64/12 63/63/12 96/96/12
f 97/97/2 98/98/2 67/67/2
f 67/67/2 64/64/2 97/97/2
f 98/98/2 99/99/2 70/70/2
f 70/70/2 67/67/2 98/98/2
f 25/25/2 24/24/2 73/73/2
f 73/73/2 72/72/2 25/25/2
f 23/23/2 76/76/2 73/73/2
f 73/73/2 24/24/2 23/23/2
f 36/36/2 78/78/2 76/76/2
f 76/76/2 23/23/2 36/36/2
f 36/36/13 100/100/13 80/80/13
f 80/80/13 78/78/13 36/36/13
f 80/80/11 100/100/11 58/58/11
f 58/58/11 82/82/11 80/80/11
f 58/58/26 30/30/25 84/84/20
f 84/84/20 82/82/20 58/58/26
f 30/30/4 29/29/4 86/86/4
f 86/86/4 84/84/4 30/30/4
f 29/29/1 28/28/1 88/88/1
f 88/88/1 86/86/1 29/29/1
f 101/101/3 90/90/3 93/93/3
f 93/93/3 102/102/3 101/101/3
f 95/95/27 62/62/18 90/90/18
f 90/90/18 101/101/28 95/95/27
f 39/39/8 103/103/8 104/104/8
f 104/104/8 40/40/8 39/39/8
f 104/104/14 32/32/14 35/35/14
f 35/35/14 40/40/14 104/104/14
f 32/32/2 12/12/2 21/21/2
f 21/21/2 35/35/2 32/32/2
f 12/12/2 11/11/2 8/8/2
f 8/8/2 21/21/2 12/12/2
f 10/10/2 5/5/2 8/8/2
f 8/8/2 11/11/2 10/10/2
f 71/71/2 75/75/2 5/5/2
f 5/5/2 10/10/2 71/71/2
f 70/70/2 72/72/2 75/75/2
f 75/75/2 71/71/2 70/70/2
f 99/99/2 25/25/2 72/72/2
f 72/72/2 70/70/2 99/99/2
f 98/98/2 26/26/2 25/25/2
f 25/25/2 99/99/2 98/98/2
f 97/97/2 37/37/2 26/26/2
f 26/26/2 98/98/2 97/97/2
f 105/105/15 47/47/15 37/37/15
f 37/37/15 97/97/15 105/105/15
f 47/47/10 105/105/10 106/106/10
f 106/106/10 48/48/10 47/47/10
f 95/95/27 101/101/28 27/27/24
f 27/27/24 57/57/24 95/95/27
f 101/101/7 102/102/7 28/28/7
f 28/28/7 27/27/7 101/101/7
f 28/28/1 102/102/1 93/93/1
f 93/93/1 88/88/1 28/28/1
f 88/88/1 93/93/1 92/92/1
f 92/92/1 89/89/1 88/88/1
f 89/89/1 92/92/1 15/15/1
f 15/15/1 2/2/1 89/89/1
f 2/2/1 15/15/1 14/14/1
f 14/14/1 3/3/1 2/2/1
f 13/13/29 22/22/6 3/3/6
f 3/3/6 14/14/29 13/13/29
f 44/44/16 56/56/23 22/22/23
f 22/22/23 13/13/17 44/44/16
# Vertices: 106, normals: 29, texture coordinates: 106, faces: 176

