# File generated by ImageToStl.com - Free Image and 3D model conversion tools

mtllib target_poster.mtl

o obj1
v -1.08464968 10.91728783 -4.81808567
v -2.43975782 10.61685848 -4.70020056
v -1.0875231 10.94563103 -4.76217604
v -1.06828928 10.75586128 -4.90075827
v -1.06203914 10.69420147 -4.89094257
v -2.43975782 10.61685848 -4.70020056
v -1.06828928 10.75586128 -4.90075827
v -1.05192804 10.59443378 -4.81808567
v -1.0490551 10.56609154 -4.76217604
v -1.05192804 10.59443378 -4.58231544
v -1.06828928 10.75586128 -4.49964285
v -1.05192804 10.59443378 -4.58231544
v -1.08017552 10.8731451 -4.53794527
v -1.0875231 10.94563103 -4.63822412
v -1.08464968 10.91728783 4.50482988
v -2.43975782 10.61685848 4.622715
v -1.0875231 10.94563103 4.56073952
v -1.06828928 10.75586128 4.42215729
v -1.06203914 10.69420147 4.43197298
v -2.43975782 10.61685848 4.622715
v -1.06828928 10.75586128 4.42215729
v -1.05192804 10.59443378 4.50482988
v -1.0490551 10.56609154 4.56073952
v -1.05192804 10.59443378 4.74060011
v -1.06828928 10.75586128 4.82327271
v -1.05192804 10.59443378 4.74060011
v -1.08017552 10.8731451 4.78497028
v -1.0875231 10.94563103 4.68469143
v -0.17967857 9.77321529 5.89152908
v -0.20229267 8.89552116 5.72920799
v -0.17268035 9.77258873 5.30237627
v -0.1994971 8.16114807 5.72920799
v -0.17138229 7.42450762 5.72920799
v -0.19991718 8.26518154 5.30237627
v 0.03291186 5.20384836 5.72920799
v 0.11811335 4.46209764 5.72920799
v 0.03225257 5.22470617 5.30237627
v 0.29747418 2.97779417 5.72920799
v 0.36281419 2.17542338 5.89152908
v 0.37450612 2.17437696 5.30237627
v 0.40604705 0.66170835 5.89152908
v 0.40798268 0.03140783 5.72920799
v 0.41025251 -0.09359074 5.30237627
v 0.3719593 -0.69949007 5.72920799
v 0.31172371 -1.42822075 5.72920799
v 0.36699846 -0.84464169 5.30237627
v -0.09774101 11.82265472 4.58336639
v -0.12143761 11.27784538 4.71322346
v -0.07916115 11.82099152 4.01044559
v 0.22853731 -2.34209013 4.71322346
v 0.16922425 -3.09170389 4.71322346
v 0.17739958 -2.88444233 4.01044559
v -0.06433362 11.819664 3.43752503
v -0.07281533 11.27349281 2.94576454
v -0.05106143 12.02646828 2.94576454
v 0.180886 -2.3378253 2.94576454
v 0.15610509 -3.09052849 3.53491759
v 0.14281704 -3.08933973 2.94576454
v -0.05058012 12.02642632 2.35661149
v -0.06469068 11.27276611 1.7674588
v -0.06019329 11.81929398 1.71876252
v 0.12834489 -2.33312082 1.7674588
v 0.13220006 -2.88039541 2.2916832
v 0.12071723 -3.08736038 1.7674588
v -0.05839939 11.81913376 0.57292062
v -0.05063085 11.27150726 0.58915269
v -0.01864113 11.81557465 0
v 0.1411313 -2.33426619 0.58915269
v 0.13581777 -3.08871269 0.58915269
v 0.16489607 -2.88332272 -0
v 0.29809532 11.78721809 -2.2916832
v 0.37944514 11.23300552 -2.94576454
v 0.33647507 11.99177551 -2.94576454
v 0.31956774 -2.35023975 -2.94576454
v 0.27845874 -2.89348888 -2.2916832
v 0.28662127 -2.8942194 -2.864604
v 0.36859852 11.78090668 -3.43752503
v 0.39271584 11.23181725 -4.12407064
v 0.3527627 11.99031734 -4.12407064
v 0.31179267 -2.34954405 -4.12407064
v 0.27308521 -3.10100174 -3.53491759
v 0.28233492 -2.89383602 -4.01044607
v 0.33783221 9.72688675 -5.30237627
v 0.2324543 8.85659981 -5.72920799
v 0.25762138 9.73406792 -5.89152908
v 0.23354614 8.22637749 -5.30237627
v 0.09097275 7.48421764 -5.89152908
v 0.15751001 8.23318386 -5.89152908
v 0.05559493 5.22261667 -5.30237627
v 0.02556127 4.47038364 -5.89152908
v 0.02412397 5.22543383 -5.89152908
v 0.13942209 2.19542217 -5.30237627
v 0.11175495 2.26029658 -5.72920799
v 0.06621017 2.99849749 -5.72920799
v 0.2653527 -0.08061886 -5.30237627
v 0.21780448 -0.07636309 -5.89152908
v 0.20424753 0.78377032 -5.72920799
v 0.27726811 -0.83660841 -5.30237627
v 0.23167256 -1.58744955 -5.89152908
v 0.22971997 -0.83235216 -5.89152908
v 1.06917346 11.1642189 -4.76217604
v 1.07204545 11.13587761 -4.81808567
v 1.08840668 10.97444916 -4.90075827
v 1.08840668 10.97444916 -4.90075827
v 1.09465611 10.9127903 -4.89094257
v 1.10476863 10.81302261 -4.81808567
v 1.10764039 10.78468037 -4.76217604
v 1.10476863 10.81302261 -4.58231544
v 1.10476863 10.81302261 -4.58231544
v 1.08840668 10.97444916 -4.49964285
v 1.07651985 11.09173393 -4.53794527
v 1.06917393 11.1642189 -4.63822412
v 1.07204545 11.13587761 -4.81808567
v 1.06917346 11.1642189 -4.76217604
v 1.05054462 11.34801865 -4.82220173
v 1.05619943 11.29222488 -4.93226099
v 1.06917393 11.1642189 -4.63822412
v 1.05054486 11.34801769 -4.57819843
v 1.07651985 11.09173393 -4.53794527
v 1.06500685 11.20532703 -4.38079643
v 1.08840668 10.97444916 -4.49964285
v 1.0884074 10.97444916 -4.3053956
v 1.10476863 10.81302261 -4.58231544
v 1.12061489 10.65667439 -4.46814013
v 1.10476863 10.81302261 -4.58231544
v 1.10764039 10.78468037 -4.76217604
v 1.12627017 10.60088158 -4.82220173
v 1.12061489 10.65667439 -4.46814013
v 1.10476863 10.81302261 -4.81808567
v 1.12061489 10.65667439 -4.93226099
v 1.09465611 10.9127903 -4.89094257
v 1.10070932 10.85307026 -5.07568264
v 1.08840668 10.97444916 -4.90075827
v 1.0884074 10.97444916 -5.09500551
v 1.08840668 10.97444916 -4.90075827
v 1.0884074 10.97444916 -5.09500551
v 1.22736633 11.36593914 -4.82220173
v 1.23302186 11.31014729 -4.93226099
v 1.22736657 11.36593914 -4.57819843
v 1.24182951 11.22324848 -4.38079643
v 1.26522863 10.99237156 -4.3053956
v 1.29743731 10.67459583 -4.46814013
v 1.30309117 10.61880302 -4.82220173
v 1.29743731 10.67459583 -4.46814013
v 1.29743731 10.67459583 -4.93226099
v 1.27753103 10.87099171 -5.07568264
v 1.26522863 10.99237156 -5.09500551
v 1.26522863 10.99237156 -5.09500551
v 1.06917346 11.1642189 4.56073952
v 1.07204545 11.13587761 4.50482988
v 1.08840668 10.97444916 4.42215729
v 1.08840668 10.97444916 4.42215729
v 1.09465611 10.9127903 4.43197298
v 1.10476863 10.81302261 4.50482988
v 1.10764039 10.78468037 4.56073952
v 1.10476863 10.81302261 4.74060011
v 1.10476863 10.81302261 4.74060011
v 1.08840668 10.97444916 4.82327271
v 1.07651985 11.09173393 4.78497028
v 1.06917393 11.1642189 4.68469143
v 1.07204545 11.13587761 4.50482988
v 1.06917346 11.1642189 4.56073952
v 1.05054462 11.34801865 4.50071383
v 1.05619943 11.29222488 4.39065456
v 1.06917393 11.1642189 4.68469143
v 1.05054486 11.34801769 4.74471712
v 1.07651985 11.09173393 4.78497028
v 1.06500685 11.20532703 4.94211912
v 1.08840668 10.97444916 4.82327271
v 1.0884074 10.97444916 5.01751995
v 1.10476863 10.81302261 4.74060011
v 1.12061489 10.65667439 4.85477543
v 1.10476863 10.81302261 4.74060011
v 1.10764039 10.78468037 4.56073952
v 1.12627017 10.60088158 4.50071383
v 1.12061489 10.65667439 4.85477543
v 1.10476863 10.81302261 4.50482988
v 1.12061489 10.65667439 4.39065456
v 1.09465611 10.9127903 4.43197298
v 1.10070932 10.85307026 4.24723339
v 1.08840668 10.97444916 4.42215729
v 1.0884074 10.97444916 4.22791004
v 1.08840668 10.97444916 4.42215729
v 1.0884074 10.97444916 4.22791004
v 1.22736633 11.36593914 4.50071383
v 1.23302186 11.31014729 4.39065456
v 1.22736657 11.36593914 4.74471712
v 1.24182951 11.22324848 4.94211912
v 1.26522863 10.99237156 5.01751995
v 1.29743731 10.67459583 4.85477543
v 1.30309117 10.61880302 4.50071383
v 1.29743731 10.67459583 4.85477543
v 1.29743731 10.67459583 4.39065456
v 1.27753103 10.87099171 4.24723339
v 1.26522863 10.99237156 4.22791004
v 1.26522863 10.99237156 4.22791004
v -0.11494671 11.82419586 5.72920799
v -0.13871618 11.09220028 5.72920799
v -0.13057616 11.27866364 5.30237627
v -0.09937038 12.03079414 5.30237627
v -0.15536988 10.52596092 5.89152908
v -0.14749703 10.5252552 5.30237627
v -0.12667578 6.74878025 5.89152908
v -0.12591949 6.74871302 5.30237627
v -0.0567628 5.98759842 5.89152908
v -0.05559194 5.98749352 5.30237627
v 0.20882484 3.69905448 5.89152908
v 0.21724062 3.69830108 5.30237627
v 0.39413154 1.41769791 5.89152908
v 0.40627715 1.41661048 5.30237627
v 0.22251502 -2.34155178 5.89152908
v 0.22853731 -2.34209013 5.30237627
v 0.18110055 -2.88477373 5.72920799
v 0.16922425 -3.09170389 5.30237627
v -0.13793479 10.52440166 4.71322346
v -0.16311808 9.77173328 4.71322346
v -0.19179547 8.26445389 4.71322346
v -0.12121256 6.74829102 4.71322346
v -0.05284726 5.98724794 4.71322346
v 0.03317722 5.2246232 4.71322346
v 0.21724062 3.69830108 4.71322346
v 0.37450612 2.17437696 4.71322346
v 0.40627715 1.41661048 4.71322346
v 0.41025251 -0.09359074 4.71322346
v 0.36699846 -0.84464169 4.71322346
v -0.08495401 10.51965904 2.94576454
v -0.10293273 9.76634502 2.94576454
v -0.12483858 8.258461 2.94576454
v -0.06980341 6.74368858 2.94576454
v -0.02973389 5.98517895 2.94576454
v 0.01274484 5.22645283 2.94576454
v 0.14930293 3.7043829 2.94576454
v 0.27871013 2.18295264 2.94576454
v 0.30661616 1.42553282 2.94576454
v 0.31445658 -0.08501482 2.94576454
v 0.28227341 -0.83705664 2.94576454
v -0.07102228 10.51840973 1.7674588
v -0.07562844 9.76390076 1.7674588
v -0.05624612 8.25232029 1.7674588
v 0.0009234 6.73735714 1.7674588
v 0.01617356 5.98106909 1.7674588
v 0.02568633 5.22529459 1.7674588
v 0.07962534 3.71062088 1.7674588
v 0.1552444 2.19400597 1.7674588
v 0.17740276 1.43710017 1.7674588
v 0.1931411 -0.07415485 1.7674588
v 0.17738986 -0.82766771 1.7674588
v -0.06852329 11.27310848 1.17830575
v -0.07176051 12.02832222 1.17830575
v -0.06901342 10.51823044 1.17830575
v -0.06031379 9.76252937 1.17830575
v -0.01546695 8.24866962 1.17830575
v 0.03761303 6.73407269 1.17830575
v 0.04952853 5.97808266 1.17830575
v 0.05559493 5.22261667 1.17830575
v 0.06534559 3.71189904 1.17830575
v 0.10261551 2.19871736 1.17830575
v 0.12813951 1.44151044 1.17830575
v 0.15502092 -0.07074165 1.17830575
v 0.14844078 -0.82507515 1.17830575
v 0.12130705 -2.33249092 1.17830575
v 0.12049935 -2.87934828 1.1458416
v -0.04030959 10.51565933 0.58915269
v -0.02027068 9.75894547 0.58915269
v 0.02675255 8.24489021 0.58915269
v 0.074764 6.73074722 0.58915269
v 0.08667955 5.97475719 0.58915269
v 0.0910853 5.21943998 0.58915269
v 0.06911828 3.71156144 0.58915269
v 0.08088131 2.20066309 0.58915269
v 0.10803132 1.4433105 0.58915269
v 0.14703517 -0.0700264 0.58915269
v 0.14931172 -0.82515383 0.58915269
v 0.07561511 11.26020432 -0.58915305
v 0.0473148 12.01766205 -0.58915305
v 0.10678325 10.50249195 -0.58915305
v 0.13925698 9.74466324 -0.58915305
v 0.15509188 8.23340034 -0.58915305
v 0.14261372 6.72467232 -0.58915305
v 0.15241151 5.96887302 -0.58915305
v 0.15411068 5.21379709 -0.58915305
v 0.11777058 3.70720577 -0.58915305
v 0.12848687 2.19640112 -0.58915305
v 0.15886512 1.43875957 -0.58915305
v 0.21780448 -0.07636309 -0.58915305
v 0.22971997 -0.83235216 -0.58915305
v 0.21632662 -2.34099674 -0.58915305
v 0.19088528 -3.09364271 -0.58915305
v 0.16894597 11.25185013 -1.1783061
v 0.13456866 12.0098505 -1.1783061
v 0.20404547 10.4937849 -1.1783061
v 0.23639254 9.73596764 -1.1783061
v 0.22876576 8.22680569 -1.1783061
v 0.17469575 6.7218008 -1.1783061
v 0.17209752 5.96711016 -1.1783061
v 0.17312248 5.21209526 -1.1783061
v 0.14137141 3.70509291 -1.1783061
v 0.16512853 2.19312096 -1.1783061
v 0.20016003 1.43506289 -1.1783061
v 0.2653527 -0.08061886 -1.1783061
v 0.27726811 -0.83660841 -1.1783061
v 0.25613523 -2.3445611 -1.1783061
v 0.22200656 -3.09642887 -1.1783061
v 0.25819647 11.24385834 -1.76745915
v 0.21931189 12.00226402 -1.76745915
v 0.29466131 10.485672 -1.76745915
v 0.32466018 9.72806549 -1.76745915
v 0.29262024 8.22108936 -1.76745915
v 0.20001324 6.7195344 -1.76745915
v 0.17982306 5.96641827 -1.76745915
v 0.17977899 5.21149921 -1.76745915
v 0.15621378 3.70376444 -1.76745915
v 0.19381166 2.19055343 -1.76745915
v 0.23427084 1.43200922 -1.76745915
v 0.30482322 -0.08415222 -1.76745915
v 0.31673872 -0.84014177 -1.76745915
v 0.28957689 -2.34755468 -1.76745915
v 0.24866325 -3.09881496 -1.76745915
v 0.41444057 10.47494984 -2.94576454
v 0.43829888 9.71789169 -2.94576454
v 0.36959624 8.21419716 -2.94576454
v 0.22510855 6.71728706 -2.94576454
v 0.18096748 5.96631622 -2.94576454
v 0.17312248 5.21209526 -2.94576454
v 0.16138843 3.70330095 -2.94576454
v 0.21603754 2.18856335 -2.94576454
v 0.26359263 1.42938399 -2.94576454
v 0.33996147 -0.08729887 -2.94576454
v 0.35187688 -0.84328794 -2.94576454
v 0.41822419 10.47461128 -4.12407064
v 0.43081862 9.71856213 -4.12407064
v 0.3391794 8.21692085 -4.12407064
v 0.1804978 6.72128105 -4.12407064
v 0.13311282 5.97060013 -4.12407064
v 0.12548713 5.21636009 -4.12407064
v 0.1249207 3.70656586 -4.12407064
v 0.19665 2.1902988 -4.12407064
v 0.25259274 1.4303689 -4.12407064
v 0.33086893 -0.08648443 -4.12407064
v 0.34278446 -0.84247398 -4.12407064
v 0.37541872 11.23336506 -4.71322346
v 0.33647507 11.99177551 -4.71322346
v 0.39360678 10.47681618 -4.71322346
v 0.39875299 9.72143269 -4.71322346
v 0.2973637 8.22066307 -4.71322346
v 0.13969058 6.72493458 -4.71322346
v 0.09554943 5.97396278 -4.71322346
v 0.0910853 5.21943998 -4.71322346
v 0.09395621 3.70933771 -4.71322346
v 0.17135969 2.19256306 -4.71322346
v 0.22999939 1.43239164 -4.71322346
v 0.30482322 -0.08415222 -4.71322346
v 0.31673872 -0.84014177 -4.71322346
v 0.28957689 -2.34755468 -4.71322346
v 0.24866325 -3.09881496 -4.71322346
v 0.32695162 11.23770523 -5.30237627
v 0.31934786 11.78531647 -5.15628719
v 0.33986527 10.48162651 -5.30237627
v 0.08909182 6.72946405 -5.30237627
v 0.05434261 5.97765207 -5.30237627
v 0.06091031 3.71229601 -5.30237627
v 0.19655778 1.43538523 -5.30237627
v 0.25613523 -2.3445611 -5.30237627
v 0.23987001 -2.89003468 -5.15628719
v 0.25350296 11.24427891 -5.89152908
v 0.25479934 11.79109478 -5.72920799
v 0.28910577 10.31977558 -5.72920799
v 0.04737916 6.67080021 -5.72920799
v 0.0261938 5.93857336 -5.72920799
v 0.03228834 3.71485853 -5.89152908
v 0.16266969 1.52161622 -5.72920799
v 0.23319483 -2.15531349 -5.72920799
v 0.20784885 -2.88716793 -5.72920799
v 1.29743731 10.67459583 -4.93226099
v 1.29743731 10.67459583 -4.46814013
v 1.30309117 10.61880302 -4.82220173
v 1.27753103 10.87099171 -5.07568264
v 1.26522863 10.99237156 -4.3053956
v 1.26522863 10.99237156 -5.09500551
v 1.23302186 11.31014729 -4.93226099
v 1.24182951 11.22324848 -4.38079643
v 1.22736657 11.36593914 -4.57819843
v 1.22736633 11.36593914 -4.82220173
v 1.29743731 10.67459583 4.39065456
v 1.29743731 10.67459583 4.85477543
v 1.30309117 10.61880302 4.50071383
v 1.27753103 10.87099171 4.24723339
v 1.26522863 10.99237156 5.01751995
v 1.26522863 10.99237156 4.22791004
v 1.23302186 11.31014729 4.39065456
v 1.24182951 11.22324848 4.94211912
v 1.22736657 11.36593914 4.74471712
v 1.22736633 11.36593914 4.50071383
vn -0.09164 0.58185 -0.80812
vn -0.23044 0.8631 -0.44939
vn -0.13339 0.9786 -0.1567
vn -0.0634 0.30325 -0.9508
vn -0.1733 0.43497 -0.88361
vn 0.01187 -0.45453 -0.89065
vn -0.1259 -0.1684 -0.97765
vn 0.03743 -0.70678 -0.70644
vn -0.07765 -0.59309 -0.80138
vn 0.06845 -0.99765 -0.0008
vn -0.05258 -0.89178 -0.4494
vn 0.04775 -0.80785 0.58745
vn -0.02913 -0.98746 0.15515
vn -0.01782 -0.15832 0.98723
vn -0.0825 -0.46089 0.88361
vn -0.09338 0.58098 0.80854
vn -0.16723 0.29071 0.94208
vn -0.12999 0.94219 0.30883
vn -0.21718 0.78348 0.58224
vn -0.23625 0.97169 0
vn -0.09164 0.58185 -0.80812
vn -0.23045 0.8631 -0.44939
vn -0.13339 0.9786 -0.1567
vn -0.0634 0.30325 -0.9508
vn 0.01187 -0.45453 -0.89065
vn -0.1259 -0.1684 -0.97765
vn 0.03743 -0.70678 -0.70644
vn -0.07765 -0.59309 -0.80138
vn 0.06845 -0.99765 -0.0008
vn -0.05258 -0.89178 -0.4494
vn 0.04774 -0.80785 0.58745
vn -0.02913 -0.98746 0.15515
vn -0.01782 -0.15832 0.98723
vn -0.0825 -0.46089 0.88361
vn -0.09338 0.58098 0.80854
vn -0.12999 0.94219 0.30883
vn -0.21717 0.78348 0.58224
vn 0.99944 -0.03119 0.0124
vn 0.99971 -0.01283 0.02055
vn 0.99957 -0.02505 0.01495
vn 0.99984 0.00424 0.01754
vn 0.99834 0.05463 0.01809
vn 0.99981 0.01243 0.01499
vn 0.99349 0.11384 0.00316
vn 0.99264 0.12026 0.01423
vn 0.99312 0.11703 0.00307
vn 0.99428 0.10681 -0.00061
vn 0.99826 0.05542 0.01997
vn 0.99707 0.07624 0.00553
vn 0.99993 0.00686 0.00924
vn 0.99944 -0.0318 0.01025
vn 0.99979 -0.02015 0.00394
vn 0.99807 -0.06048 0.01441
vn 0.99565 -0.09294 0.00694
vn 0.99689 -0.07877 0.00362
vn 0.99903 -0.03935 0.01985
vn 0.99937 -0.02641 0.02385
vn 0.99878 -0.04093 0.0275
vn 0.99645 -0.08046 -0.02463
vn 0.99688 -0.07888 -0.00382
vn 0.99799 -0.05868 -0.02413
vn 0.99889 -0.03961 0.02552
vn 0.99961 -0.02107 0.01825
vn 0.99963 -0.02625 0.00659
vn 0.99689 -0.06397 -0.04604
vn 0.99814 -0.05551 -0.02522
vn 0.99842 -0.04492 -0.03387
vn 0.99969 -0.02461 0.00375
vn 0.99994 -0.01121 0.00172
vn 0.9999 -0.00386 -0.01334
vn 0.99822 -0.0368 -0.04701
vn 0.99862 -0.03785 -0.03644
vn 0.99992 -0.00754 -0.01058
vn 0.9993 0.01065 0.03598
vn 0.9966 0.02155 0.07959
vn 0.99287 0.04606 0.10994
vn 0.99877 -0.00977 0.04863
vn 0.99928 -0.00608 0.03743
vn 0.99794 -0.02571 0.05873
vn 0.99354 0.03821 0.10684
vn 0.9976 0.04267 0.0545
vn 0.99813 0.04548 0.04091
vn 0.99956 -0.02811 0.00894
vn 0.99839 -0.04914 0.02826
vn 0.99832 -0.05794 -0.00125
vn 0.99898 0.04155 0.01783
vn 0.99913 0.04095 -0.00847
vn 0.99841 0.05214 -0.02149
vn 0.99938 -0.02962 -0.01906
vn 0.99832 -0.05771 -0.00504
vn 0.99805 -0.05661 -0.02622
vn 0.993 -0.04175 -0.11051
vn 0.99064 -0.07279 -0.11544
vn 0.99102 -0.02925 -0.13047
vn 0.99093 -0.08288 -0.10576
vn 0.98981 -0.08826 -0.11173
vn 0.98978 -0.07936 -0.11847
vn 0.99827 0.00255 -0.05869
vn 0.99858 0.00503 -0.05311
vn 0.99839 0.00429 -0.05656
vn 0.99657 0.06056 -0.05635
vn 0.99602 0.06792 -0.05765
vn 0.99691 0.04631 -0.06339
vn 0.99716 0.03263 -0.06783
vn 0.99656 0.02081 -0.08028
vn 0.99715 0.04681 -0.05925
vn 0.99771 -0.00145 -0.06758
vn 0.99801 -0.01226 -0.06183
vn 0.9967 0.01136 -0.08036
vn -0.0996 0.98265 -0.15643
vn -0.05927 0.58479 -0.80902
vn -0.03116 0.30744 -0.95106
vn 0.04578 -0.45168 -0.891
vn 0.0713 -0.7035 -0.70711
vn 0.10084 -0.9949 -0
vn 0.08158 -0.80489 0.58778
vn 0.01577 -0.15564 0.98769
vn -0.05927 0.58479 0.80902
vn -0.0959 0.94621 0.30902
vn -0.9949 -0.10083 0
vn -0.9949 -0.10083 0
vn -0.9949 -0.10083 0
vn -0.9949 -0.10084 0
vn -0.9949 -0.10084 0
vn -0.9949 -0.10084 0
vn -0.9949 -0.10084 0
vn -0.9949 -0.10084 -0
vn -0.9949 -0.10084 -0
vn -0.9949 -0.10084 -0
vn -0.9949 -0.10084 0
vn -0.9949 -0.10084 0
vn -0.9949 -0.10084 0
vn -0.9949 -0.10084 0
vn -0.9949 -0.10084 0
vn -0.9949 -0.10084 0
vn -0.9949 -0.10084 0
vn -0.9949 -0.10084 0
vn -0.9949 -0.10084 0
vn -0.9949 -0.10084 0
vn -0.9949 -0.10084 -0
vn -0.9949 -0.10084 -0
vn -0.9949 -0.10084 -0
vn -0.9949 -0.10084 -0
vn -0.9949 -0.10084 0
vn -0.9949 -0.10084 0
vn -0.9949 -0.10084 0
vn -0.9949 -0.10084 -0
vn -0.9949 -0.10084 -0
vn -0.9949 -0.10084 -0
vn -0.9949 -0.10084 -0
vn -0.9949 -0.10084 -0
vn -0.9949 -0.10084 -0
vn -0.9949 -0.10084 -0
vn -0.9949 -0.10084 -0
vn -0.05927 0.58479 -0.80902
vn -0.09959 0.98265 -0.15644
vn -0.09959 0.98265 -0.15644
vn -0.05927 0.58479 -0.80902
vn -0.0959 0.94621 0.30902
vn -0.0959 0.94621 0.30902
vn -0.05927 0.58479 0.80902
vn -0.05927 0.58479 0.80902
vn 0.01578 -0.15564 0.98769
vn 0.01578 -0.15564 0.98769
vn 0.08158 -0.80489 0.58779
vn 0.08158 -0.80489 0.58779
vn 0.10084 -0.9949 -0
vn 0.10084 -0.9949 -0
vn 0.0713 -0.7035 -0.70711
vn 0.0713 -0.7035 -0.70711
vn 0.04578 -0.45168 -0.89101
vn 0.04578 -0.45168 -0.89101
vn -0.03116 0.30744 -0.95106
vn -0.03116 0.30744 -0.95106
vn -0.0996 0.98265 -0.15643
vn -0.05927 0.58479 -0.80902
vn -0.03116 0.30744 -0.95106
vn 0.04578 -0.45168 -0.891
vn 0.0713 -0.7035 -0.70711
vn 0.10084 -0.9949 -0
vn 0.08158 -0.80489 0.58778
vn 0.01577 -0.15564 0.98769
vn -0.05927 0.58479 0.80902
vn -0.0959 0.94621 0.30902
vn -0.9949 -0.10084 0
vn -0.9949 -0.10084 0
vn -0.9949 -0.10084 0
vn -0.9949 -0.10084 0
vn -0.9949 -0.10084 0
vn -0.9949 -0.10084 0
vn -0.9949 -0.10084 0
vn -0.9949 -0.10084 0
vn -0.9949 -0.10084 -0
vn -0.9949 -0.10084 -0
vn -0.9949 -0.10084 -0
vn -0.9949 -0.10084 0
vn -0.9949 -0.10084 0
vn -0.9949 -0.10084 0
vn -0.9949 -0.10084 0
vn -0.9949 -0.10084 0
vn -0.9949 -0.10084 0
vn -0.9949 -0.10084 0
vn -0.9949 -0.10084 -0
vn -0.9949 -0.10084 -0
vn -0.9949 -0.10084 -0
vn -0.9949 -0.10084 0
vn -0.9949 -0.10084 0
vn -0.9949 -0.10084 0
vn -0.9949 -0.10084 -0
vn -0.9949 -0.10084 -0
vn -0.9949 -0.10084 -0
vn -0.9949 -0.10084 -0
vn -0.9949 -0.10084 -0
vn -0.9949 -0.10084 -0
vn -0.9949 -0.10084 -0
vn -0.05927 0.58479 -0.80902
vn -0.09959 0.98265 -0.15644
vn -0.09959 0.98265 -0.15644
vn -0.05927 0.58479 -0.80902
vn -0.0959 0.94621 0.30902
vn -0.0959 0.94621 0.30902
vn -0.05927 0.58479 0.80902
vn -0.05927 0.58479 0.80902
vn 0.01578 -0.15564 0.98769
vn 0.01577 -0.15564 0.98769
vn 0.08158 -0.80489 0.58779
vn 0.08158 -0.80489 0.58779
vn 0.10084 -0.9949 -0
vn 0.10084 -0.9949 -0
vn 0.0713 -0.7035 -0.70711
vn 0.0713 -0.7035 -0.70711
vn 0.04578 -0.45168 -0.89101
vn 0.04578 -0.45168 -0.89101
vn -0.03116 0.30744 -0.95106
vn -0.03116 0.30744 -0.95106
vn 0.99926 -0.03701 0.01072
vn 0.99954 -0.02834 0.01115
vn 0.99941 -0.03169 0.01348
vn 0.99914 -0.03934 0.01318
vn 0.99949 -0.02952 0.01216
vn 0.9995 -0.02841 0.01423
vn 0.99723 0.0737 0.01005
vn 0.99775 0.06633 0.0099
vn 0.99486 0.10128 0.00214
vn 0.99478 0.10203 0.00346
vn 0.99335 0.11494 0.00618
vn 0.99363 0.11269 0.00254
vn 0.99969 0.0209 0.0137
vn 0.99982 0.01808 0.00622
vn 0.99603 -0.08873 0.0077
vn 0.99612 -0.08799 0.00316
vn 0.99682 -0.07897 0.01038
vn 0.99688 -0.07891 0.00353
vn 0.99933 -0.0248 0.02684
vn 0.99932 -0.02142 0.02987
vn 0.99949 0.01292 0.02923
vn 0.99825 0.054 0.02421
vn 0.99644 0.08378 0.00928
vn 0.99463 0.10282 -0.01176
vn 0.99442 0.10217 -0.02629
vn 0.99634 0.07729 -0.03658
vn 0.99902 0.0157 -0.04138
vn 0.99907 -0.01492 -0.04041
vn 0.99687 -0.07251 -0.03159
vn 0.99953 -0.01973 0.02363
vn 0.99931 -0.01465 0.03399
vn 0.99906 0.0147 0.04068
vn 0.99817 0.04554 0.03975
vn 0.99792 0.06084 0.02129
vn 0.99671 0.08005 -0.01279
vn 0.99545 0.0855 -0.04213
vn 0.99558 0.06774 -0.06501
vn 0.99702 0.01591 -0.07551
vn 0.99726 -0.01057 -0.07328
vn 0.99667 -0.0594 -0.05591
vn 0.99989 -0.00937 0.01115
vn 0.99942 0.00133 0.03416
vn 0.99841 0.0217 0.05199
vn 0.99771 0.03459 0.05817
vn 0.99865 0.0283 0.04349
vn 0.99914 0.04135 0.00374
vn 0.9977 0.05302 -0.04222
vn 0.99545 0.04903 -0.08174
vn 0.99518 0.01742 -0.09651
vn 0.99584 -0.00204 -0.09106
vn 0.99727 -0.03644 -0.06418
vn 0.99991 0.00229 0.01302
vn 0.99997 0.00388 0.00628
vn 0.9996 0.00592 0.02772
vn 0.99848 0.02077 0.05112
vn 0.9976 0.03028 0.06234
vn 0.9975 0.02881 0.06446
vn 0.99816 0.01272 0.05928
vn 0.99936 0.00857 0.03469
vn 0.99982 0.01763 -0.00631
vn 0.99861 0.02887 -0.04416
vn 0.99834 0.02299 -0.05278
vn 0.99903 0.00904 -0.04312
vn 0.99977 -0.01526 -0.01484
vn 0.99989 -0.0147 -0.00124
vn 0.9999 -0.0059 0.01247
vn 0.99492 0.02481 0.09759
vn 0.99421 0.0257 0.10431
vn 0.99563 0.0214 0.09086
vn 0.9973 0.01752 0.0713
vn 0.99828 0.00991 0.05774
vn 0.99884 -0.00779 0.04743
vn 0.99947 -0.00194 0.03241
vn 0.99961 0.01919 0.02007
vn 0.99924 0.0315 0.02287
vn 0.99929 0.02102 0.03114
vn 0.9989 -0.00398 0.04678
vn 0.99081 0.0378 0.12984
vn 0.99022 0.0446 0.1322
vn 0.99027 0.0348 0.13477
vn 0.99097 0.02215 0.13226
vn 0.99424 0.00759 0.10688
vn 0.99724 0.00403 0.07419
vn 0.99873 0.00721 0.04981
vn 0.99891 -0.01251 0.04489
vn 0.99902 -0.0058 0.04393
vn 0.99876 0.01908 0.04601
vn 0.99776 0.03662 0.056
vn 0.99766 0.02726 0.06264
vn 0.99762 -0.00187 0.06889
vn 0.99767 -0.01532 0.06643
vn 0.99758 -0.03423 0.06045
vn 0.98748 0.04459 0.1513
vn 0.98798 0.04426 0.14809
vn 0.98695 0.04315 0.15514
vn 0.98973 0.01048 0.14255
vn 0.9938 -0.02017 0.10937
vn 0.99743 -0.02525 0.06711
vn 0.99957 -0.00197 0.02925
vn 0.99958 -0.01323 0.02567
vn 0.99936 -0.00228 0.03561
vn 0.99846 0.02604 0.04907
vn 0.99689 0.04393 0.0654
vn 0.99697 0.03374 0.07012
vn 0.99755 -0.00387 0.06981
vn 0.99767 -0.024 0.06385
vn 0.99745 -0.04465 0.05567
vn 0.99157 0.04431 0.1218
vn 0.99064 0.04192 0.12992
vn 0.9923 0.04198 0.1165
vn 0.99467 -0.00516 0.10302
vn 0.99601 -0.04759 0.07553
vn 0.9975 -0.05698 0.04176
vn 0.99978 -0.01838 0.00965
vn 0.99994 -0.01037 0.00462
vn 0.9999 0.00662 0.01286
vn 0.99905 0.03645 0.02405
vn 0.99809 0.0498 0.0366
vn 0.99853 0.0367 0.03989
vn 0.99917 -0.00704 0.0401
vn 0.99888 -0.0266 0.03914
vn 0.99796 -0.04917 0.04083
vn 0.998 0.03659 0.05146
vn 0.9991 -0.01895 0.03784
vn 0.9976 -0.0666 0.01912
vn 0.99702 -0.07714 -0.00087
vn 0.9994 -0.02972 -0.01778
vn 0.99978 -0.00783 -0.01926
vn 0.99983 0.01417 -0.01208
vn 0.99898 0.04506 -0.00251
vn 0.99851 0.05408 0.00773
vn 0.99921 0.03837 0.00991
vn 0.99991 -0.00831 0.01052
vn 0.99953 0.02809 -0.01203
vn 0.99915 -0.03121 -0.02682
vn 0.9961 -0.07953 -0.03822
vn 0.99503 -0.08837 -0.04599
vn 0.99823 -0.03511 -0.04792
vn 0.99902 -0.0048 -0.04397
vn 0.9991 0.02089 -0.03691
vn 0.9982 0.05289 -0.02833
vn 0.99815 0.05728 -0.02021
vn 0.99905 0.0391 -0.01949
vn 0.99979 -0.00835 -0.01892
vn 0.99788 0.03569 -0.05437
vn 0.99785 0.04901 -0.04353
vn 0.99765 0.01576 -0.06668
vn 0.99589 -0.04172 -0.08037
vn 0.9929 -0.08425 -0.08396
vn 0.99299 -0.08715 -0.07988
vn 0.99724 -0.03075 -0.06765
vn 0.99827 -0.00053 -0.05881
vn 0.99821 0.02602 -0.05392
vn 0.99703 0.05862 -0.04991
vn 0.99708 0.0577 -0.05002
vn 0.9979 0.0378 -0.05261
vn 0.99859 -0.00649 -0.05277
vn 0.99842 -0.02844 -0.04847
vn 0.99769 -0.05418 -0.04099
vn 0.99439 0.02801 -0.102
vn 0.99521 0.04185 -0.08837
vn 0.99419 0.00983 -0.10715
vn 0.99232 -0.07953 -0.09474
vn 0.99731 -0.02207 -0.0699
vn 0.99805 0.02548 -0.05701
vn 0.99667 0.05676 -0.05855
vn 0.99787 -0.02541 -0.06006
vn 0.99742 -0.04615 -0.05507
vn 0.99229 0.02571 -0.12123
vn 0.99232 0.03881 -0.11743
vn 0.99212 0.00226 -0.12528
vn 0.99261 -0.07066 -0.09861
vn 0.99774 -0.0115 -0.06621
vn 0.99811 0.02165 -0.05745
vn 0.99656 0.05947 -0.05775
vn 0.99799 -0.01983 -0.0602
vn 0.99726 -0.03963 -0.06244
vn 0.9949 0.10084 -0
vn 0.9949 0.10084 -0
vn 0.9949 0.10084 -0
vn 0.9949 0.10084 -0
vn 0.9949 0.10084 -0
vn 0.9949 0.10084 -0
vn 0.9949 0.10084 -0
vn 0.9949 0.10084 -0
vn 0.9949 0.10084 -0
vn 0.9949 0.10084 -0
vn 0.9949 0.10084 -0
vn 0.9949 0.10084 -0
vn 0.9949 0.10084 -0
vn 0.9949 0.10084 -0
vn 0.9949 0.10084 -0
vt 0.05213 0.61074
vt 0.11033 1
vt 0.06964 0.60975
vt 0.00138 0.61565
vt 0.33071 0.60949
vt 0.29412 1
vt 0.34832 0.61039
vt 0.29592 0.60876
vt 0.27832 0.60892
vt 0.22729 0.61141
vt 0.17348 0.61112
vt 0.22432 0.61638
vt 0.13887 0.60927
vt 0.10425 0.60881
vt 0.41109 0.13516
vt 0.41886 0.17463
vt 0.43762 0.13489
vt 0.41928 0.2077
vt 0.41967 0.24089
vt 0.43842 0.20279
vt 0.42095 0.3413
vt 0.42133 0.3749
vt 0.44014 0.34013
vt 0.42207 0.44221
vt 0.41514 0.47857
vt 0.44169 0.4783
vt 0.41605 0.54681
vt 0.42373 0.57511
vt 0.44303 0.58045
vt 0.42421 0.60809
vt 0.42475 0.64105
vt 0.44355 0.61433
vt 0.46904 0.04214
vt 0.46343 0.06676
vt 0.49485 0.04191
vt 0.47127 0.68161
vt 0.47186 0.71548
vt 0.5034 0.70558
vt 0.52064 0.04168
vt 0.54301 0.06605
vt 0.54264 0.03211
vt 0.55094 0.68014
vt 0.52501 0.71452
vt 0.55155 0.71404
vt 0.56912 0.03182
vt 0.59602 0.06547
vt 0.59791 0.04082
vt 0.604 0.67911
vt 0.58081 0.70414
vt 0.60453 0.7131
vt 0.64946 0.04019
vt 0.64907 0.06487
vt 0.67535 0.04001
vt 0.657 0.6784
vt 0.65747 0.7124
vt 0.68383 0.7028
vt 0.77956 0.04013
vt 0.8095 0.06475
vt 0.80896 0.03053
vt 0.81624 0.67718
vt 0.78704 0.70202
vt 0.81284 0.70176
vt 0.83132 0.03978
vt 0.86257 0.06415
vt 0.8622 0.02994
vt 0.8693 0.67651
vt 0.84316 0.71074
vt 0.86448 0.70113
vt 0.91646 0.13137
vt 0.93634 0.1705
vt 0.94324 0.13082
vt 0.91739 0.19913
vt 0.94458 0.23254
vt 0.94412 0.19867
vt 0.91897 0.33469
vt 0.94582 0.36825
vt 0.94553 0.33427
vt 0.92018 0.47102
vt 0.9394 0.46786
vt 0.93911 0.43458
vt 0.92121 0.57366
vt 0.94783 0.57312
vt 0.94003 0.53446
vt 0.92161 0.60772
vt 0.94864 0.64122
vt 0.94824 0.60719
vt 0.06925 0.00143
vt 0.05149 0.00148
vt 0 0.00165
vt 0.34841 0.00037
vt 0.33076 0.00031
vt 0.29587 0.00019
vt 0.27819 0.00013
vt 0.22687 0
vt 0.22578 0.00152
vt 0.17453 0.00142
vt 0.13948 0.00137
vt 0.10437 0.00137
vt 0.57328 0.87575
vt 0.55562 0.88618
vt 0.58158 0.93355
vt 0.60619 0.91746
vt 0.51726 0.89591
vt 0.52414 0.9505
vt 0.47757 0.89205
vt 0.46485 0.94538
vt 0.44138 0.87527
vt 0.41133 0.91956
vt 0.40785 0.83268
vt 0.34934 0.84472
vt 0.45119 0.86339
vt 0.5 0.84258
vt 0.49373 0.79054
vt 0.40562 0.82827
vt 0.52029 0.84247
vt 0.52353 0.7894
vt 0.55715 0.85314
vt 0.58477 0.80422
vt 0.57283 0.86345
vt 0.61472 0.81988
vt 0.6046 0.83268
vt 0.66223 0.8394
vt 0.60223 0.979
vt 0.63666 0.95627
vt 0.52784 1
vt 0.45102 0.99291
vt 0.38195 0.9582
vt 0.31228 0.88031
vt 0.48691 0.74211
vt 0.38702 0.77813
vt 0.52714 0.74041
vt 0.59902 0.75763
vt 0.6321 0.77096
vt 0.70424 0.8732
vt 0.41737 0.04265
vt 0.41772 0.07564
vt 0.43687 0.06703
vt 0.4365 0.03312
vt 0.41069 0.10124
vt 0.43723 0.10097
vt 0.41274 0.27148
vt 0.43927 0.27115
vt 0.4132 0.30589
vt 0.43972 0.30557
vt 0.41441 0.40958
vt 0.44094 0.40933
vt 0.41557 0.51274
vt 0.44211 0.51245
vt 0.41813 0.68251
vt 0.4447 0.68207
vt 0.42586 0.70693
vt 0.44527 0.71594
vt 0.46378 0.10071
vt 0.46414 0.13463
vt 0.46492 0.20252
vt 0.46579 0.27086
vt 0.46624 0.30526
vt 0.46669 0.33981
vt 0.46745 0.40901
vt 0.46818 0.47796
vt 0.46861 0.51209
vt 0.46954 0.58004
vt 0.47008 0.6139
vt 0.54338 0.10002
vt 0.54376 0.13397
vt 0.54454 0.20192
vt 0.54543 0.27022
vt 0.54588 0.30445
vt 0.54633 0.33869
vt 0.54712 0.40755
vt 0.5478 0.47633
vt 0.54822 0.51047
vt 0.54917 0.57849
vt 0.54973 0.61239
vt 0.59642 0.09946
vt 0.59684 0.13347
vt 0.59773 0.20161
vt 0.59868 0.26995
vt 0.5991 0.30405
vt 0.59952 0.33812
vt 0.60037 0.40646
vt 0.60114 0.47494
vt 0.60158 0.50909
vt 0.60248 0.57725
vt 0.60299 0.61123
vt 0.62253 0.06513
vt 0.62209 0.03111
vt 0.62295 0.09915
vt 0.62339 0.13321
vt 0.62436 0.20148
vt 0.62533 0.2698
vt 0.62576 0.30389
vt 0.62616 0.33795
vt 0.62698 0.40607
vt 0.62781 0.47432
vt 0.62822 0.50849
vt 0.6291 0.57671
vt 0.62954 0.61074
vt 0.6305 0.67869
vt 0.63231 0.70331
vt 0.64952 0.09894
vt 0.65 0.13306
vt 0.65101 0.20134
vt 0.652 0.26964
vt 0.65242 0.30373
vt 0.65282 0.33778
vt 0.65357 0.40576
vt 0.65438 0.47387
vt 0.65481 0.50804
vt 0.65565 0.57632
vt 0.6561 0.61037
vt 0.7025 0.06475
vt 0.70197 0.03059
vt 0.70305 0.09893
vt 0.70362 0.13312
vt 0.7045 0.20127
vt 0.7053 0.2693
vt 0.70571 0.30338
vt 0.7061 0.33741
vt 0.7068 0.40533
vt 0.70756 0.47343
vt 0.70798 0.50761
vt 0.70887 0.57595
vt 0.70929 0.61003
vt 0.71009 0.67802
vt 0.71042 0.71196
vt 0.72938 0.06484
vt 0.7288 0.03066
vt 0.72995 0.09903
vt 0.73051 0.13321
vt 0.73129 0.20124
vt 0.73197 0.26914
vt 0.73234 0.30315
vt 0.73271 0.33718
vt 0.73341 0.40512
vt 0.73418 0.47328
vt 0.73462 0.50748
vt 0.73548 0.57584
vt 0.7359 0.60991
vt 0.73665 0.67786
vt 0.73696 0.71177
vt 0.7562 0.06491
vt 0.7556 0.0307
vt 0.75677 0.09909
vt 0.75731 0.13324
vt 0.758 0.20115
vt 0.75862 0.26895
vt 0.75897 0.3029
vt 0.75932 0.33692
vt 0.76003 0.40487
vt 0.76079 0.47309
vt 0.76121 0.50732
vt 0.76207 0.5757
vt 0.76246 0.60976
vt 0.76319 0.67767
vt 0.7635 0.71156
vt 0.81 0.09891
vt 0.81046 0.133
vt 0.81116 0.20073
vt 0.81185 0.26844
vt 0.8122 0.30232
vt 0.81253 0.33631
vt 0.81321 0.40429
vt 0.81392 0.47258
vt 0.81431 0.50684
vt 0.8151 0.57525
vt 0.81549 0.60929
vt 0.86297 0.09827
vt 0.86335 0.13231
vt 0.86416 0.20001
vt 0.86506 0.26771
vt 0.86545 0.30158
vt 0.86575 0.33554
vt 0.86639 0.40354
vt 0.86704 0.47189
vt 0.86736 0.5062
vt 0.8681 0.57459
vt 0.86849 0.60863
vt 0.88911 0.06379
vt 0.88878 0.02959
vt 0.88948 0.09787
vt 0.88984 0.13188
vt 0.89072 0.19959
vt 0.8917 0.26728
vt 0.89209 0.30115
vt 0.89238 0.33512
vt 0.89299 0.4031
vt 0.8936 0.47147
vt 0.89391 0.5058
vt 0.89462 0.57416
vt 0.89502 0.60821
vt 0.89585 0.67611
vt 0.89631 0.71
vt 0.91571 0.06329
vt 0.90887 0.03868
vt 0.91609 0.09736
vt 0.91835 0.26684
vt 0.91871 0.30071
vt 0.91956 0.40266
vt 0.92048 0.50533
vt 0.92246 0.67566
vt 0.91619 0.70033
vt 0.94245 0.06268
vt 0.93483 0.03811
vt 0.93555 0.10445
vt 0.93769 0.26931
vt 0.93798 0.30227
vt 0.94611 0.40224
vt 0.9397 0.50118
vt 0.94162 0.6669
vt 0.94208 0.69989
vt 0.92117 0.88377
vt 0.86194 1
vt 0.92117 0.91849
vt 0.89004 0.82266
vt 0.76118 0.99999
vt 0.86195 0.80225
vt 0.7612 0.80225
vt 0.71269 0.9515
vt 0.70197 0.88376
vt 0.73311 0.82265
usemtl mat0
f 1/1/1 2/2/2 3/3/3
f 4/4/4 2/2/5 1/1/1
f 5/5/6 6/6/7 7/7/4
f 8/8/8 6/6/9 5/5/6
f 9/9/10 6/6/11 8/8/8
f 10/10/12 6/6/13 9/9/10
f 11/11/14 2/2/15 12/12/12
f 13/13/16 2/2/17 11/11/14
f 14/14/18 2/2/19 13/13/16
f 3/3/3 2/2/20 14/14/18
f 15/1/21 16/2/22 17/3/23
f 18/4/24 16/2/5 15/1/21
f 19/5/25 20/6/26 21/7/24
f 22/8/27 20/6/28 19/5/25
f 23/9/29 20/6/30 22/8/27
f 24/10/31 20/6/32 23/9/29
f 25/11/33 16/2/34 26/12/31
f 27/13/35 16/2/17 25/11/33
f 28/14/36 16/2/37 27/13/35
f 17/3/23 16/2/20 28/14/36
f 29/15/38 30/16/39 31/17/40
f 32/18/41 33/19/42 34/20/43
f 35/21/44 36/22/45 37/23/46
f 38/24/47 39/25/48 40/26/49
f 41/27/50 42/28/51 43/29/52
f 44/30/53 45/31/54 46/32/55
f 47/33/56 48/34/57 49/35/58
f 50/36/59 51/37/60 52/38/61
f 53/39/62 54/40/63 55/41/64
f 56/42/65 57/43/66 58/44/67
f 59/45/68 60/46/69 61/47/70
f 62/48/71 63/49/72 64/50/73
f 65/51/74 66/52/75 67/53/76
f 68/54/77 69/55/78 70/56/79
f 71/57/80 72/58/81 73/59/82
f 74/60/83 75/61/84 76/62/85
f 77/63/86 78/64/87 79/65/88
f 80/66/89 81/67/90 82/68/91
f 83/69/92 84/70/93 85/71/94
f 86/72/95 87/73/96 88/74/97
f 89/75/98 90/76/99 91/77/100
f 92/78/101 93/79/102 94/80/103
f 95/81/104 96/82/105 97/83/106
f 98/84/107 99/85/108 100/86/109
f 1/1/1 3/3/3 101/87/110
f 1/1/1 101/87/110 102/88/111
f 4/4/4 1/1/1 102/88/111
f 4/4/4 102/88/111 103/89/112
f 5/5/6 7/7/4 104/90/112
f 5/5/6 104/90/112 105/91/113
f 8/8/8 5/5/6 105/91/113
f 8/8/8 105/91/113 106/92/114
f 9/9/10 8/8/8 106/92/114
f 9/9/10 106/92/114 107/93/115
f 10/10/12 9/9/10 107/93/115
f 10/10/12 107/93/115 108/94/116
f 11/11/14 12/12/12 109/95/116
f 11/11/14 109/95/116 110/96/117
f 13/13/16 11/11/14 110/96/117
f 13/13/16 110/96/117 111/97/118
f 14/14/18 13/13/16 111/97/118
f 14/14/18 111/97/118 112/98/119
f 3/3/3 14/14/18 112/98/119
f 3/3/3 112/98/119 101/87/110
f 113/99/120 114/100/121 115/101/122
f 113/99/120 115/101/122 116/102/122
f 114/100/123 117/103/124 118/104/125
f 114/100/123 118/104/125 115/101/126
f 117/103/127 119/105/127 120/106/128
f 117/103/127 120/106/128 118/104/129
f 119/105/130 121/107/131 122/108/132
f 119/105/130 122/108/132 120/106/133
f 121/107/134 123/109/135 124/110/136
f 121/107/134 124/110/136 122/108/136
f 125/111/137 126/112/138 127/113/137
f 125/111/137 127/113/137 128/114/139
f 126/112/140 129/115/141 130/116/142
f 126/112/140 130/116/142 127/113/143
f 129/115/144 131/117/145 132/118/145
f 129/115/144 132/118/145 130/116/146
f 131/117/147 133/119/148 134/120/149
f 131/117/147 134/120/149 132/118/150
f 135/121/151 113/99/152 116/102/153
f 135/121/151 116/102/153 136/122/154
f 116/102/155 115/101/156 137/123/157
f 116/102/155 137/123/157 138/124/158
f 115/101/156 118/104/159 139/125/160
f 115/101/156 139/125/160 137/123/157
f 118/104/159 120/106/161 140/126/162
f 118/104/159 140/126/162 139/125/160
f 120/106/161 122/108/163 141/127/164
f 120/106/161 141/127/164 140/126/162
f 122/108/163 124/110/165 142/128/166
f 122/108/163 142/128/166 141/127/164
f 128/114/165 127/113/167 143/129/168
f 128/114/165 143/129/168 144/130/166
f 127/113/167 130/116/169 145/131/170
f 127/113/167 145/131/170 143/129/168
f 130/116/169 132/118/171 146/132/172
f 130/116/169 146/132/172 145/131/170
f 132/118/171 134/120/173 147/133/174
f 132/118/171 147/133/174 146/132/172
f 136/122/173 116/102/155 138/124/158
f 136/122/173 138/124/158 148/134/174
f 15/1/21 17/3/23 149/87/175
f 15/1/21 149/87/175 150/88/176
f 18/4/24 15/1/21 150/88/176
f 18/4/24 150/88/176 151/89/177
f 19/5/25 21/7/24 152/90/177
f 19/5/25 152/90/177 153/91/178
f 22/8/27 19/5/25 153/91/178
f 22/8/27 153/91/178 154/92/179
f 23/9/29 22/8/27 154/92/179
f 23/9/29 154/92/179 155/93/180
f 24/10/31 23/9/29 155/93/180
f 24/10/31 155/93/180 156/94/181
f 25/11/33 26/12/31 157/95/181
f 25/11/33 157/95/181 158/96/182
f 27/13/35 25/11/33 158/96/182
f 27/13/35 158/96/182 159/97/183
f 28/14/36 27/13/35 159/97/183
f 28/14/36 159/97/183 160/98/184
f 17/3/23 28/14/36 160/98/184
f 17/3/23 160/98/184 149/87/175
f 161/99/185 162/100/186 163/101/187
f 161/99/185 163/101/187 164/102/188
f 162/100/189 165/103/190 166/104/191
f 162/100/189 166/104/191 163/101/192
f 165/103/193 167/105/194 168/106/194
f 165/103/193 168/106/194 166/104/195
f 167/105/130 169/107/131 170/108/132
f 167/105/130 170/108/132 168/106/133
f 169/107/196 171/109/197 172/110/196
f 169/107/196 172/110/196 170/108/198
f 173/111/199 174/112/200 175/113/201
f 173/111/199 175/113/201 176/114/202
f 174/112/203 177/115/204 178/116/205
f 174/112/203 178/116/205 175/113/205
f 177/115/206 179/117/207 180/118/206
f 177/115/206 180/118/206 178/116/208
f 179/117/209 181/119/210 182/120/211
f 179/117/209 182/120/211 180/118/212
f 183/121/213 161/99/213 164/102/214
f 183/121/213 164/102/214 184/122/215
f 164/102/216 163/101/217 185/123/218
f 164/102/216 185/123/218 186/124/219
f 163/101/217 166/104/220 187/125/221
f 163/101/217 187/125/221 185/123/218
f 166/104/220 168/106/222 188/126/223
f 166/104/220 188/126/223 187/125/221
f 168/106/222 170/108/224 189/127/225
f 168/106/222 189/127/225 188/126/223
f 170/108/224 172/110/226 190/128/227
f 170/108/224 190/128/227 189/127/225
f 176/114/226 175/113/228 191/129/229
f 176/114/226 191/129/229 192/130/227
f 175/113/228 178/116/230 193/131/231
f 175/113/228 193/131/231 191/129/229
f 178/116/230 180/118/232 194/132/233
f 178/116/230 194/132/233 193/131/231
f 180/118/232 182/120/234 195/133/235
f 180/118/232 195/133/235 194/132/233
f 184/122/234 164/102/216 186/124/219
f 184/122/234 186/124/219 196/134/235
f 197/135/236 198/136/237 199/137/238
f 197/135/236 199/137/238 200/138/239
f 198/136/237 201/139/240 202/140/241
f 198/136/237 202/140/241 199/137/238
f 201/139/240 29/15/38 31/17/40
f 201/139/240 31/17/40 202/140/241
f 30/16/39 32/18/41 34/20/43
f 30/16/39 34/20/43 31/17/40
f 33/19/42 203/141/242 204/142/243
f 33/19/42 204/142/243 34/20/43
f 203/141/242 205/143/244 206/144/245
f 203/141/242 206/144/245 204/142/243
f 205/143/244 35/21/44 37/23/46
f 205/143/244 37/23/46 206/144/245
f 36/22/45 207/145/246 208/146/247
f 36/22/45 208/146/247 37/23/46
f 207/145/246 38/24/47 40/26/49
f 207/145/246 40/26/49 208/146/247
f 39/25/48 209/147/248 210/148/249
f 39/25/48 210/148/249 40/26/49
f 209/147/248 41/27/50 43/29/52
f 209/147/248 43/29/52 210/148/249
f 42/28/51 44/30/53 46/32/55
f 42/28/51 46/32/55 43/29/52
f 45/31/54 211/149/250 212/150/251
f 45/31/54 212/150/251 46/32/55
f 211/149/250 213/151/252 214/152/253
f 211/149/250 214/152/253 212/150/251
f 200/138/239 199/137/238 48/34/57
f 200/138/239 48/34/57 47/33/56
f 199/137/238 202/140/241 215/153/254
f 199/137/238 215/153/254 48/34/57
f 202/140/241 31/17/40 216/154/255
f 202/140/241 216/154/255 215/153/254
f 31/17/40 34/20/43 217/155/256
f 31/17/40 217/155/256 216/154/255
f 34/20/43 204/142/243 218/156/257
f 34/20/43 218/156/257 217/155/256
f 204/142/243 206/144/245 219/157/258
f 204/142/243 219/157/258 218/156/257
f 206/144/245 37/23/46 220/158/259
f 206/144/245 220/158/259 219/157/258
f 37/23/46 208/146/247 221/159/260
f 37/23/46 221/159/260 220/158/259
f 208/146/247 40/26/49 222/160/261
f 208/146/247 222/160/261 221/159/260
f 40/26/49 210/148/249 223/161/262
f 40/26/49 223/161/262 222/160/261
f 210/148/249 43/29/52 224/162/263
f 210/148/249 224/162/263 223/161/262
f 43/29/52 46/32/55 225/163/264
f 43/29/52 225/163/264 224/162/263
f 46/32/55 212/150/251 50/36/59
f 46/32/55 50/36/59 225/163/264
f 212/150/251 214/152/253 51/37/60
f 212/150/251 51/37/60 50/36/59
f 49/35/58 48/34/57 54/40/63
f 49/35/58 54/40/63 53/39/62
f 48/34/57 215/153/254 226/164/265
f 48/34/57 226/164/265 54/40/63
f 215/153/254 216/154/255 227/165/266
f 215/153/254 227/165/266 226/164/265
f 216/154/255 217/155/256 228/166/267
f 216/154/255 228/166/267 227/165/266
f 217/155/256 218/156/257 229/167/268
f 217/155/256 229/167/268 228/166/267
f 218/156/257 219/157/258 230/168/269
f 218/156/257 230/168/269 229/167/268
f 219/157/258 220/158/259 231/169/270
f 219/157/258 231/169/270 230/168/269
f 220/158/259 221/159/260 232/170/271
f 220/158/259 232/170/271 231/169/270
f 221/159/260 222/160/261 233/171/272
f 221/159/260 233/171/272 232/170/271
f 222/160/261 223/161/262 234/172/273
f 222/160/261 234/172/273 233/171/272
f 223/161/262 224/162/263 235/173/274
f 223/161/262 235/173/274 234/172/273
f 224/162/263 225/163/264 236/174/275
f 224/162/263 236/174/275 235/173/274
f 225/163/264 50/36/59 56/42/65
f 225/163/264 56/42/65 236/174/275
f 50/36/59 52/38/61 57/43/66
f 50/36/59 57/43/66 56/42/65
f 55/41/64 54/40/63 60/46/69
f 55/41/64 60/46/69 59/45/68
f 54/40/63 226/164/265 237/175/276
f 54/40/63 237/175/276 60/46/69
f 226/164/265 227/165/266 238/176/277
f 226/164/265 238/176/277 237/175/276
f 227/165/266 228/166/267 239/177/278
f 227/165/266 239/177/278 238/176/277
f 228/166/267 229/167/268 240/178/279
f 228/166/267 240/178/279 239/177/278
f 229/167/268 230/168/269 241/179/280
f 229/167/268 241/179/280 240/178/279
f 230/168/269 231/169/270 242/180/281
f 230/168/269 242/180/281 241/179/280
f 231/169/270 232/170/271 243/181/282
f 231/169/270 243/181/282 242/180/281
f 232/170/271 233/171/272 244/182/283
f 232/170/271 244/182/283 243/181/282
f 233/171/272 234/172/273 245/183/284
f 233/171/272 245/183/284 244/182/283
f 234/172/273 235/173/274 246/184/285
f 234/172/273 246/184/285 245/183/284
f 235/173/274 236/174/275 247/185/286
f 235/173/274 247/185/286 246/184/285
f 236/174/275 56/42/65 62/48/71
f 236/174/275 62/48/71 247/185/286
f 56/42/65 58/44/67 63/49/72
f 56/42/65 63/49/72 62/48/71
f 61/47/70 60/46/69 248/186/287
f 61/47/70 248/186/287 249/187/288
f 60/46/69 237/175/276 250/188/289
f 60/46/69 250/188/289 248/186/287
f 237/175/276 238/176/277 251/189/290
f 237/175/276 251/189/290 250/188/289
f 238/176/277 239/177/278 252/190/291
f 238/176/277 252/190/291 251/189/290
f 239/177/278 240/178/279 253/191/292
f 239/177/278 253/191/292 252/190/291
f 240/178/279 241/179/280 254/192/293
f 240/178/279 254/192/293 253/191/292
f 241/179/280 242/180/281 255/193/294
f 241/179/280 255/193/294 254/192/293
f 242/180/281 243/181/282 256/194/295
f 242/180/281 256/194/295 255/193/294
f 243/181/282 244/182/283 257/195/296
f 243/181/282 257/195/296 256/194/295
f 244/182/283 245/183/284 258/196/297
f 244/182/283 258/196/297 257/195/296
f 245/183/284 246/184/285 259/197/298
f 245/183/284 259/197/298 258/196/297
f 246/184/285 247/185/286 260/198/299
f 246/184/285 260/198/299 259/197/298
f 247/185/286 62/48/71 261/199/300
f 247/185/286 261/199/300 260/198/299
f 62/48/71 64/50/73 262/200/301
f 62/48/71 262/200/301 261/199/300
f 249/187/288 248/186/287 66/52/75
f 249/187/288 66/52/75 65/51/74
f 248/186/287 250/188/289 263/201/302
f 248/186/287 263/201/302 66/52/75
f 250/188/289 251/189/290 264/202/303
f 250/188/289 264/202/303 263/201/302
f 251/189/290 252/190/291 265/203/304
f 251/189/290 265/203/304 264/202/303
f 252/190/291 253/191/292 266/204/305
f 252/190/291 266/204/305 265/203/304
f 253/191/292 254/192/293 267/205/306
f 253/191/292 267/205/306 266/204/305
f 254/192/293 255/193/294 268/206/307
f 254/192/293 268/206/307 267/205/306
f 255/193/294 256/194/295 269/207/308
f 255/193/294 269/207/308 268/206/307
f 256/194/295 257/195/296 270/208/309
f 256/194/295 270/208/309 269/207/308
f 257/195/296 258/196/297 271/209/310
f 257/195/296 271/209/310 270/208/309
f 258/196/297 259/197/298 272/210/311
f 258/196/297 272/210/311 271/209/310
f 259/197/298 260/198/299 273/211/312
f 259/197/298 273/211/312 272/210/311
f 260/198/299 261/199/300 68/54/77
f 260/198/299 68/54/77 273/211/312
f 261/199/300 262/200/301 69/55/78
f 261/199/300 69/55/78 68/54/77
f 67/53/76 66/52/75 274/212/313
f 67/53/76 274/212/313 275/213/314
f 66/52/75 263/201/302 276/214/315
f 66/52/75 276/214/315 274/212/313
f 263/201/302 264/202/303 277/215/316
f 263/201/302 277/215/316 276/214/315
f 264/202/303 265/203/304 278/216/317
f 264/202/303 278/216/317 277/215/316
f 265/203/304 266/204/305 279/217/318
f 265/203/304 279/217/318 278/216/317
f 266/204/305 267/205/306 280/218/319
f 266/204/305 280/218/319 279/217/318
f 267/205/306 268/206/307 281/219/320
f 267/205/306 281/219/320 280/218/319
f 268/206/307 269/207/308 282/220/321
f 268/206/307 282/220/321 281/219/320
f 269/207/308 270/208/309 283/221/322
f 269/207/308 283/221/322 282/220/321
f 270/208/309 271/209/310 284/222/323
f 270/208/309 284/222/323 283/221/322
f 271/209/310 272/210/311 285/223/324
f 271/209/310 285/223/324 284/222/323
f 272/210/311 273/211/312 286/224/325
f 272/210/311 286/224/325 285/223/324
f 273/211/312 68/54/77 287/225/326
f 273/211/312 287/225/326 286/224/325
f 68/54/77 70/56/79 288/226/327
f 68/54/77 288/226/327 287/225/326
f 275/213/314 274/212/313 289/227/328
f 275/213/314 289/227/328 290/228/329
f 274/212/313 276/214/315 291/229/330
f 274/212/313 291/229/330 289/227/328
f 276/214/315 277/215/316 292/230/331
f 276/214/315 292/230/331 291/229/330
f 277/215/316 278/216/317 293/231/332
f 277/215/316 293/231/332 292/230/331
f 278/216/317 279/217/318 294/232/333
f 278/216/317 294/232/333 293/231/332
f 279/217/318 280/218/319 295/233/334
f 279/217/318 295/233/334 294/232/333
f 280/218/319 281/219/320 296/234/335
f 280/218/319 296/234/335 295/233/334
f 281/219/320 282/220/321 297/235/336
f 281/219/320 297/235/336 296/234/335
f 282/220/321 283/221/322 298/236/337
f 282/220/321 298/236/337 297/235/336
f 283/221/322 284/222/323 299/237/338
f 283/221/322 299/237/338 298/236/337
f 284/222/323 285/223/324 300/238/339
f 284/222/323 300/238/339 299/237/338
f 285/223/324 286/224/325 301/239/340
f 285/223/324 301/239/340 300/238/339
f 286/224/325 287/225/326 302/240/341
f 286/224/325 302/240/341 301/239/340
f 287/225/326 288/226/327 303/241/342
f 287/225/326 303/241/342 302/240/341
f 290/228/329 289/227/328 304/242/343
f 290/228/329 304/242/343 305/243/344
f 289/227/328 291/229/330 306/244/345
f 289/227/328 306/244/345 304/242/343
f 291/229/330 292/230/331 307/245/346
f 291/229/330 307/245/346 306/244/345
f 292/230/331 293/231/332 308/246/347
f 292/230/331 308/246/347 307/245/346
f 293/231/332 294/232/333 309/247/348
f 293/231/332 309/247/348 308/246/347
f 294/232/333 295/233/334 310/248/349
f 294/232/333 310/248/349 309/247/348
f 295/233/334 296/234/335 311/249/350
f 295/233/334 311/249/350 310/248/349
f 296/234/335 297/235/336 312/250/351
f 296/234/335 312/250/351 311/249/350
f 297/235/336 298/236/337 313/251/352
f 297/235/336 313/251/352 312/250/351
f 298/236/337 299/237/338 314/252/353
f 298/236/337 314/252/353 313/251/352
f 299/237/338 300/238/339 315/253/354
f 299/237/338 315/253/354 314/252/353
f 300/238/339 301/239/340 316/254/355
f 300/238/339 316/254/355 315/253/354
f 301/239/340 302/240/341 317/255/356
f 301/239/340 317/255/356 316/254/355
f 302/240/341 303/241/342 318/256/357
f 302/240/341 318/256/357 317/255/356
f 305/243/344 304/242/343 72/58/81
f 305/243/344 72/58/81 71/57/80
f 304/242/343 306/244/345 319/257/358
f 304/242/343 319/257/358 72/58/81
f 306/244/345 307/245/346 320/258/359
f 306/244/345 320/258/359 319/257/358
f 307/245/346 308/246/347 321/259/360
f 307/245/346 321/259/360 320/258/359
f 308/246/347 309/247/348 322/260/361
f 308/246/347 322/260/361 321/259/360
f 309/247/348 310/248/349 323/261/362
f 309/247/348 323/261/362 322/260/361
f 310/248/349 311/249/350 324/262/363
f 310/248/349 324/262/363 323/261/362
f 311/249/350 312/250/351 325/263/364
f 311/249/350 325/263/364 324/262/363
f 312/250/351 313/251/352 326/264/365
f 312/250/351 326/264/365 325/263/364
f 313/251/352 314/252/353 327/265/366
f 313/251/352 327/265/366 326/264/365
f 314/252/353 315/253/354 328/266/367
f 314/252/353 328/266/367 327/265/366
f 315/253/354 316/254/355 329/267/368
f 315/253/354 329/267/368 328/266/367
f 316/254/355 317/255/356 74/60/83
f 316/254/355 74/60/83 329/267/368
f 317/255/356 318/256/357 75/61/84
f 317/255/356 75/61/84 74/60/83
f 73/59/82 72/58/81 78/64/87
f 73/59/82 78/64/87 77/63/86
f 72/58/81 319/257/358 330/268/369
f 72/58/81 330/268/369 78/64/87
f 319/257/358 320/258/359 331/269/370
f 319/257/358 331/269/370 330/268/369
f 320/258/359 321/259/360 332/270/371
f 320/258/359 332/270/371 331/269/370
f 321/259/360 322/260/361 333/271/372
f 321/259/360 333/271/372 332/270/371
f 322/260/361 323/261/362 334/272/373
f 322/260/361 334/272/373 333/271/372
f 323/261/362 324/262/363 335/273/374
f 323/261/362 335/273/374 334/272/373
f 324/262/363 325/263/364 336/274/375
f 324/262/363 336/274/375 335/273/374
f 325/263/364 326/264/365 337/275/376
f 325/263/364 337/275/376 336/274/375
f 326/264/365 327/265/366 338/276/377
f 326/264/365 338/276/377 337/275/376
f 327/265/366 328/266/367 339/277/378
f 327/265/366 339/277/378 338/276/377
f 328/266/367 329/267/368 340/278/379
f 328/266/367 340/278/379 339/277/378
f 329/267/368 74/60/83 80/66/89
f 329/267/368 80/66/89 340/278/379
f 74/60/83 76/62/85 81/67/90
f 74/60/83 81/67/90 80/66/89
f 79/65/88 78/64/87 341/279/380
f 79/65/88 341/279/380 342/280/381
f 78/64/87 330/268/369 343/281/382
f 78/64/87 343/281/382 341/279/380
f 330/268/369 331/269/370 344/282/383
f 330/268/369 344/282/383 343/281/382
f 331/269/370 332/270/371 345/283/384
f 331/269/370 345/283/384 344/282/383
f 332/270/371 333/271/372 346/284/385
f 332/270/371 346/284/385 345/283/384
f 333/271/372 334/272/373 347/285/386
f 333/271/372 347/285/386 346/284/385
f 334/272/373 335/273/374 348/286/387
f 334/272/373 348/286/387 347/285/386
f 335/273/374 336/274/375 349/287/388
f 335/273/374 349/287/388 348/286/387
f 336/274/375 337/275/376 350/288/389
f 336/274/375 350/288/389 349/287/388
f 337/275/376 338/276/377 351/289/390
f 337/275/376 351/289/390 350/288/389
f 338/276/377 339/277/378 352/290/391
f 338/276/377 352/290/391 351/289/390
f 339/277/378 340/278/379 353/291/392
f 339/277/378 353/291/392 352/290/391
f 340/278/379 80/66/89 354/292/393
f 340/278/379 354/292/393 353/291/392
f 80/66/89 82/68/91 355/293/394
f 80/66/89 355/293/394 354/292/393
f 342/280/381 341/279/380 356/294/395
f 342/280/381 356/294/395 357/295/396
f 341/279/380 343/281/382 358/296/397
f 341/279/380 358/296/397 356/294/395
f 343/281/382 344/282/383 83/69/92
f 343/281/382 83/69/92 358/296/397
f 344/282/383 345/283/384 86/72/95
f 344/282/383 86/72/95 83/69/92
f 345/283/384 346/284/385 359/297/398
f 345/283/384 359/297/398 86/72/95
f 346/284/385 347/285/386 360/298/399
f 346/284/385 360/298/399 359/297/398
f 347/285/386 348/286/387 89/75/98
f 347/285/386 89/75/98 360/298/399
f 348/286/387 349/287/388 361/299/400
f 348/286/387 361/299/400 89/75/98
f 349/287/388 350/288/389 92/78/101
f 349/287/388 92/78/101 361/299/400
f 350/288/389 351/289/390 362/300/401
f 350/288/389 362/300/401 92/78/101
f 351/289/390 352/290/391 95/81/104
f 351/289/390 95/81/104 362/300/401
f 352/290/391 353/291/392 98/84/107
f 352/290/391 98/84/107 95/81/104
f 353/291/392 354/292/393 363/301/402
f 353/291/392 363/301/402 98/84/107
f 354/292/393 355/293/394 364/302/403
f 354/292/393 364/302/403 363/301/402
f 357/295/396 356/294/395 365/303/404
f 357/295/396 365/303/404 366/304/405
f 356/294/395 358/296/397 367/305/406
f 356/294/395 367/305/406 365/303/404
f 358/296/397 83/69/92 85/71/94
f 358/296/397 85/71/94 367/305/406
f 83/69/92 86/72/95 88/74/97
f 83/69/92 88/74/97 84/70/93
f 86/72/95 359/297/398 368/306/407
f 86/72/95 368/306/407 87/73/96
f 359/297/398 360/298/399 369/307/408
f 359/297/398 369/307/408 368/306/407
f 360/298/399 89/75/98 91/77/100
f 360/298/399 91/77/100 369/307/408
f 89/75/98 361/299/400 370/308/409
f 89/75/98 370/308/409 90/76/99
f 361/299/400 92/78/101 94/80/103
f 361/299/400 94/80/103 370/308/409
f 92/78/101 362/300/401 371/309/410
f 92/78/101 371/309/410 93/79/102
f 362/300/401 95/81/104 97/83/106
f 362/300/401 97/83/106 371/309/410
f 95/81/104 98/84/107 100/86/109
f 95/81/104 100/86/109 96/82/105
f 98/84/107 363/301/402 372/310/411
f 98/84/107 372/310/411 99/85/108
f 363/301/402 364/302/403 373/311/412
f 363/301/402 373/311/412 372/310/411
f 374/312/413 375/313/414 376/314/415
f 375/313/414 374/312/413 377/315/416
f 375/313/414 377/315/416 378/316/417
f 378/316/417 377/315/416 379/317/418
f 378/316/417 379/317/418 380/318/419
f 378/316/417 380/318/419 381/319/420
f 381/319/420 380/318/419 382/320/417
f 382/320/417 380/318/419 383/321/421
f 384/312/422 385/313/423 386/314/424
f 385/313/423 384/312/422 387/315/422
f 385/313/423 387/315/422 388/316/423
f 388/316/423 387/315/422 389/317/425
f 388/316/423 389/317/425 390/318/425
f 388/316/423 390/318/425 391/319/426
f 391/319/426 390/318/425 392/320/427
f 392/320/427 390/318/425 393/321/425
# Vertices: 393, normals: 427, texture coordinates: 321, faces: 572

